/* XPM */
static char * bottom_active_xpm[] = {
"8 8 2 1",
" 	c None",
".	c #B8D9FA s inactive_border_color",
"........",
"........",
"........",
"....... ",
"....... ",
"......  ",
".....   ",
"...     "};
