/* XPM */
static char * close_active_xpm[] = {
"49 29 451 2",
"  	c None",
". 	c #946A61",
"+ 	c #FCFCFC",
"@ 	c #584440",
"# 	c #DCE9FD",
"$ 	c #93665D",
"% 	c #F2D4CF",
"& 	c #E4A59C",
"* 	c #E7A69C",
"= 	c #E8A79C",
"- 	c #E9A79C",
"; 	c #ECA79C",
"> 	c #EDA79C",
", 	c #EEA79B",
"' 	c #F2A79B",
") 	c #F3A79B",
"! 	c #F5A79B",
"~ 	c #F7A79B",
"{ 	c #F8A899",
"] 	c #FAA899",
"^ 	c #FBA898",
"/ 	c #FCA898",
"( 	c #F6A79B",
"_ 	c #F1A79B",
": 	c #EBA79C",
"< 	c #F0CAC4",
"[ 	c #57423D",
"} 	c #92635B",
"| 	c #F2D2CD",
"1 	c #E3A096",
"2 	c #E4A096",
"3 	c #E6A096",
"4 	c #E8A196",
"5 	c #E9A194",
"6 	c #ECA194",
"7 	c #EDA193",
"8 	c #F0A193",
"9 	c #F2A293",
"0 	c #F3A293",
"a 	c #F6A293",
"b 	c #F7A293",
"c 	c #F8A293",
"d 	c #FAA393",
"e 	c #F1A293",
"f 	c #EBA194",
"g 	c #E7A096",
"h 	c #EDC6C0",
"i 	c #543F3C",
"j 	c #905F56",
"k 	c #F0CFCA",
"l 	c #DF998E",
"m 	c #E2998E",
"n 	c #E3998E",
"o 	c #E69B8E",
"p 	c #E79B8E",
"q 	c #E89B8E",
"r 	c #EC9B8E",
"s 	c #ED9C8D",
"t 	c #F09C8D",
"u 	c #F29C8D",
"v 	c #F39C8D",
"w 	c #F69D8D",
"x 	c #F79D8D",
"y 	c #F79D8C",
"z 	c #FA9D8C",
"A 	c #F89D8C",
"B 	c #F59C8D",
"C 	c #F19C8D",
"D 	c #EE9C8D",
"E 	c #E6998E",
"F 	c #EDC1BB",
"G 	c #533D38",
"H 	c #8F5A4F",
"I 	c #EDCAC5",
"J 	c #DA9185",
"K 	c #DC9185",
"L 	c #DE9184",
"M 	c #DF9284",
"N 	c #E29284",
"O 	c #E39284",
"P 	c #E69384",
"Q 	c #E89384",
"R 	c #E99384",
"S 	c #ED9384",
"T 	c #EE9384",
"U 	c #F19384",
"V 	c #F29383",
"W 	c #F59383",
"X 	c #F69483",
"Y 	c #F79483",
"Z 	c #8D6C6F",
"` 	c #535666",
" .	c #F29384",
"..	c #F09384",
"+.	c #EC9384",
"@.	c #E19284",
"#.	c #DE9284",
"$.	c #E9BCB6",
"%.	c #513A35",
"&.	c #8E544A",
"*.	c #ECC6BF",
"=.	c #D7887A",
"-.	c #D8887A",
";.	c #D9887A",
">.	c #DA887A",
",.	c #DE897A",
"'.	c #E2897A",
").	c #E3897A",
"!.	c #E7897A",
"~.	c #E8897A",
"{.	c #EB8A7A",
"].	c #ED8A79",
"^.	c #F08A79",
"/.	c #F18A79",
"(.	c #F28A78",
"_.	c #FFFFFF",
":.	c #8C686B",
"<.	c #F28A79",
"[.	c #EE8A79",
"}.	c #EC8A79",
"|.	c #E98A7A",
"1.	c #E6897A",
"2.	c #E1897A",
"3.	c #DD887A",
"4.	c #E7B7B0",
"5.	c #4E3530",
"6.	c #8A4E43",
"7.	c #E8C0BB",
"8.	c #D07D70",
"9.	c #D37D70",
"0.	c #D47E70",
"a.	c #D57E70",
"b.	c #D87F70",
"c.	c #D97F70",
"d.	c #DD7F70",
"e.	c #DF7F6F",
"f.	c #E27F6F",
"g.	c #E47F6F",
"h.	c #E7806F",
"i.	c #E9806E",
"j.	c #EC806E",
"k.	c #ED806E",
"l.	c #EE806C",
"m.	c #F0806C",
"n.	c #8B6567",
"o.	c #E8806E",
"p.	c #E37F6F",
"q.	c #E17F6F",
"r.	c #DE7F6F",
"s.	c #D87E70",
"t.	c #E3B1AA",
"u.	c #4C312C",
"v.	c #88473B",
"w.	c #E6BBB4",
"x.	c #CA7064",
"y.	c #CD7164",
"z.	c #CF7164",
"A.	c #D27364",
"B.	c #D47362",
"C.	c #D57362",
"D.	c #D97362",
"E.	c #DC7461",
"F.	c #DE7461",
"G.	c #E17561",
"H.	c #E47561",
"I.	c #E77561",
"J.	c #E87561",
"K.	c #E97561",
"L.	c #EB7561",
"M.	c #896163",
"N.	c #E37561",
"O.	c #DF7561",
"P.	c #D37362",
"Q.	c #D27164",
"R.	c #DEAAA2",
"S.	c #492C26",
"T.	c #F0F0F0",
"U.	c #751301",
"V.	c #D29188",
"W.	c #9E1A07",
"X.	c #A11A07",
"Y.	c #A21B07",
"Z.	c #A61B07",
"`.	c #AA1C07",
" +	c #AC1C06",
".+	c #B11E06",
"++	c #B51E05",
"@+	c #BA1E03",
"#+	c #BF1F03",
"$+	c #C12003",
"%+	c #C62003",
"&+	c #CA2002",
"*+	c #CD2002",
"=+	c #CF2102",
"-+	c #D02102",
";+	c #7F4241",
">+	c #E8E8E8",
",+	c #CE2002",
"'+	c #C82003",
")+	c #C52003",
"!+	c #C02003",
"~+	c #BC1F03",
"{+	c #B91E03",
"]+	c #A81B07",
"^+	c #A51B07",
"/+	c #C5756B",
"(+	c #340900",
"_+	c #E3E3E3",
":+	c #751403",
"<+	c #D39289",
"[+	c #A11C0C",
"}+	c #A21C0C",
"|+	c #A51E0B",
"1+	c #A71F0B",
"2+	c #AB200B",
"3+	c #AD200A",
"4+	c #B1200A",
"5+	c #B62108",
"6+	c #BA2307",
"7+	c #C02407",
"8+	c #C32407",
"9+	c #C82507",
"0+	c #CA2507",
"a+	c #CD2507",
"b+	c #CF2506",
"c+	c #D02506",
"d+	c #7F4442",
"e+	c #DEDEDE",
"f+	c #CE2507",
"g+	c #CB2507",
"h+	c #C92507",
"i+	c #C52407",
"j+	c #BC2307",
"k+	c #B92107",
"l+	c #B52008",
"m+	c #AC200A",
"n+	c #AA200B",
"o+	c #C8786C",
"p+	c #340A02",
"q+	c #741706",
"r+	c #D3978E",
"s+	c #A22612",
"t+	c #A32812",
"u+	c #A62812",
"v+	c #A82812",
"w+	c #AC2912",
"x+	c #B02A12",
"y+	c #B42A12",
"z+	c #B62A11",
"A+	c #BB2A11",
"B+	c #C02B11",
"C+	c #C32B11",
"D+	c #C62D11",
"E+	c #CA2D10",
"F+	c #CD2E10",
"G+	c #CF2E0F",
"H+	c #D02E0F",
"I+	c #DADADA",
"J+	c #7F4746",
"K+	c #CE2E10",
"L+	c #CA2E10",
"M+	c #C82D11",
"N+	c #C52D11",
"O+	c #C12B11",
"P+	c #BE2B11",
"Q+	c #BA2A11",
"R+	c #B22A12",
"S+	c #AF2A12",
"T+	c #A72812",
"U+	c #C97E71",
"V+	c #340C04",
"W+	c #741B0C",
"X+	c #D49D93",
"Y+	c #A63320",
"Z+	c #A73420",
"`+	c #AA3420",
" @	c #AC3420",
".@	c #B03520",
"+@	c #B1351F",
"@@	c #B6351F",
"#@	c #BA381E",
"$@	c #BC391C",
"%@	c #C1391C",
"&@	c #C43A1C",
"*@	c #C93C1C",
"=@	c #CA3C1B",
"-@	c #CD3C1B",
";@	c #CF3C1B",
">@	c #D03C1B",
",@	c #7F4C4A",
"'@	c #CE3C1B",
")@	c #CB3C1B",
"!@	c #CA3C1C",
"~@	c #C63A1C",
"{@	c #C3391C",
"]@	c #BF391C",
"^@	c #BB381C",
"/@	c #B9371E",
"(@	c #B5351F",
"_@	c #AF3420",
":@	c #CA857A",
"<@	c #360E08",
"[@	c #782012",
"}@	c #D7A59B",
"|@	c #AB432F",
"1@	c #AC432F",
"2@	c #AF442F",
"3@	c #B1442F",
"4@	c #B6462F",
"5@	c #B7472F",
"6@	c #BB472F",
"7@	c #BE482E",
"8@	c #C0492E",
"9@	c #C4492E",
"0@	c #C84C2E",
"a@	c #CA4C2D",
"b@	c #CF4C2B",
"c@	c #CF4D2B",
"d@	c #D24D2B",
"e@	c #D44D2B",
"f@	c #D34D2B",
"g@	c #D04D2B",
"h@	c #CB4C2D",
"i@	c #C64B2E",
"j@	c #C3492E",
"k@	c #C0482E",
"l@	c #BC482E",
"m@	c #BA472F",
"n@	c #B6472F",
"o@	c #B5462F",
"p@	c #B0442F",
"q@	c #AF4834",
"r@	c #CD9287",
"s@	c #3A120E",
"t@	c #79261A",
"u@	c #DCACA5",
"v@	c #B45543",
"w@	c #B55543",
"x@	c #B65643",
"y@	c #B75643",
"z@	c #BB5742",
"A@	c #BE5842",
"B@	c #C05842",
"C@	c #C35A41",
"D@	c #C85C41",
"E@	c #CA5C41",
"F@	c #CE5D3F",
"G@	c #D05F3F",
"H@	c #D3603F",
"I@	c #D4603F",
"J@	c #D5613F",
"K@	c #D8613F",
"L@	c #D7613F",
"M@	c #D4613F",
"N@	c #CF5F3F",
"O@	c #CD5C41",
"P@	c #BC5742",
"Q@	c #BA6152",
"R@	c #CA9E98",
"S@	c #481D17",
"T@	c #7D2D20",
"U@	c #DEB4AC",
"V@	c #BB6455",
"W@	c #BC6555",
"X@	c #BE6553",
"Y@	c #C06653",
"Z@	c #C36652",
"`@	c #C56952",
" #	c #C96952",
".#	c #CB6A52",
"+#	c #CF6B52",
"@#	c #D26C51",
"##	c #D46E51",
"$#	c #D76F51",
"%#	c #D97050",
"&#	c #DA7050",
"*#	c #DD704E",
"=#	c #DE704E",
"-#	c #DA704E",
";#	c #D76F50",
">#	c #D46F51",
",#	c #D36C51",
"'#	c #D06B51",
")#	c #CA6A52",
"!#	c #C56752",
"~#	c #C16652",
"{#	c #C06A57",
"]#	c #C47364",
"^#	c #D3978D",
"/#	c #9D8381",
"(#	c #73413B",
"_#	c #863426",
":#	c #F0D7D3",
"<#	c #DFABA1",
"[#	c #E1ABA1",
"}#	c #E2ABA0",
"|#	c #E3ACA0",
"1#	c #E4ACA0",
"2#	c #E6ADA0",
"3#	c #E7ADA0",
"4#	c #E8AFA0",
"5#	c #E9AFA0",
"6#	c #EDB19E",
"7#	c #F0B19E",
"8#	c #F1B19E",
"9#	c #F2B29E",
"0#	c #F2B19E",
"a#	c #EEB19E",
"b#	c #ECB09E",
"c#	c #E8ADA0",
"d#	c #E4ADA0",
"e#	c #E3B1A7",
"f#	c #CBA7A0",
"g#	c #977B77",
"h#	c #492621",
"i#	c #C1D1E9",
"j#	c #A4CCFB",
"k#	c #5D2014",
"l#	c #4C1D14",
"m#	c #4D1E14",
"n#	c #4D1F15",
"o#	c #4F1F16",
"p#	c #4F2017",
"q#	c #502117",
"r#	c #512218",
"s#	c #51241A",
"t#	c #52241B",
"u#	c #53251B",
"v#	c #53261D",
"w#	c #54271D",
"x#	c #56271E",
"y#	c #56281F",
"z#	c #562820",
"A#	c #572820",
"B#	c #562920",
"C#	c #542820",
"D#	c #53281F",
"E#	c #52271F",
"F#	c #51261E",
"G#	c #50251D",
"H#	c #4F241B",
"I#	c #4E241B",
"J#	c #4D221A",
"K#	c #4C2119",
"L#	c #4A2018",
"M#	c #491F16",
"N#	c #5F291E",
"O#	c #86473B",
"P#	c #C9DAF3",
"Q#	c #9AC5F6",
"R#	c #A6CCFB",
". + + + + + + + + + + + + + + + + + + + + + + + + + + + + + + + + + + + + + + + + + + + + + + @ # ",
"$ % & & * = - ; > , ' ) ! ~ { ] ^ / / / / / / / / / ^ / / / / ^ ] { ~ ( ! ' _ , > : - = * & < [ # ",
"} | 1 1 2 3 4 5 6 7 8 9 0 a b c d d d d d d d d d d d d d d d d c b b a 9 e 8 7 f 5 g 3 2 1 h i # ",
"j k l l m n o p q r s t u v w x y z z z z z z z z z A z z z z A x w B v C D s r q p E n m l F G # ",
"H I J K L M N O P Q R S T U V W X Y Y Z ` ` ` Z Y Z ` ` ` Z Y Y W V  ...S +.R Q P O @.#.L K $.%.# ",
"&.*.=.-.;.>.,.,.'.).!.~.{.].^./.(.(.(.` _._._.` :.` _._._.` (.(.<.^.[.}.|.~.1.).2.,.3.;.;.-.4.5.# ",
"6.7.8.9.0.a.b.c.d.e.f.g.h.i.j.k.l.m.m.n.` _._._.` _._._.` n.m.m.k.j.i.o.h.p.q.r.d.c.s.0.0.9.t.u.# ",
"v.w.x.x.y.z.A.B.C.D.E.F.G.H.I.J.K.L.L.L.M.` _._._._._.` M.L.L.K.J.I.H.N.O.F.E.D.C.P.Q.z.y.x.R.S.# ",
"v.w.x.x.y.z.A.B.C.D.E.F.G.H.I.J.K.L.L.L.L.M.` T.T.T.` M.L.L.L.K.J.I.H.N.O.F.E.D.C.P.Q.z.y.x.R.S.# ",
"U.V.W.X.Y.Z.`. +.+++@+#+$+%+&+*+=+-+-+-+-+;+` >+>+>+` ;+-+-+-+=+,+&+'+)+!+~+{+++.+ +]+^+Y.X./+(+# ",
"U.V.W.X.Y.Z.`. +.+++@+#+$+%+&+*+=+-+-+-+;+` _+_+_+_+_+` ;+-+-+=+,+&+'+)+!+~+{+++.+ +]+^+Y.X./+(+# ",
":+<+[+}+|+1+2+3+4+5+6+7+8+9+0+a+b+c+c+d+` e+e+e+` e+e+e+` d+c+b+f+g+h+i+7+j+k+l+4+m+n+1+|+}+o+p+# ",
"q+r+s+t+u+v+w+x+y+z+A+B+C+D+E+F+G+H+H+` I+I+I+` J+` I+I+I+` H+G+K+L+M+N+O+P+Q+z+R+S+w+T+u+t+U+V+# ",
"W+X+Y+Z+`+ @.@+@@@#@$@%@&@*@=@-@;@>@>@,@` ` ` ,@>@,@` ` ` ,@>@;@'@)@!@~@{@]@^@/@(@+@_@ @`+Z+:@<@# ",
"[@}@|@1@2@3@4@5@6@7@8@9@0@a@b@c@d@e@e@e@e@e@e@e@e@e@f@e@e@e@e@f@g@c@h@a@i@j@k@l@m@n@o@p@2@q@r@s@# ",
"t@u@v@w@x@y@z@A@B@C@D@E@F@G@H@I@J@K@K@K@K@K@K@K@K@K@L@K@K@K@K@L@M@I@G@N@O@E@D@C@B@P@z@y@x@Q@R@S@# ",
"T@U@V@W@X@Y@Z@`@ #.#+#@###$#%#&#*#=#=#=#=#=#=#=#=#=#=#=#=#=#=#=#-#%#;#>#,#'#+#)# #!#~#{#]#^#/#(## ",
"_#:#<#[#}#|#1#2#3#4#5#6#6#7#8#8#9#9#9#9#9#9#9#9#9#9#9#9#9#9#9#9#0#8#7#a#6#b#5#c#3#d#|#e#f#g#h#i#j#",
"k#l#l#l#m#n#o#p#q#r#s#t#u#v#w#x#y#y#z#A#z#z#z#B#z#z#C#z#B#z#z#C#C#D#E#F#G#H#I#J#K#L#M#M#N#O#P#Q#  ",
"# # # # # # # # # # # # # # # # # # # # # # # # # # # # # # # # # # # # # # # # # # # # # # R#    ",
"                                                                                                  ",
"                                                                                                  ",
"                                                                                                  ",
"                                                                                                  ",
"                                                                                                  ",
"                                                                                                  ",
"                                                                                                  ",
"                                                                                                  ",
"                                                                                                  "};
