/* XPM */
static char * close_inactive_xpm[] = {
"49 29 2 1",
" 	c None",
".	c #B8D9FA s inactive_border_color",
".................................................",
".................................................",
".................................................",
".................................................",
".................................................",
".................................................",
".................................................",
".................................................",
".................................................",
".................................................",
".................................................",
".................................................",
".................................................",
".................................................",
".................................................",
".................................................",
".................................................",
".................................................",
"................................................ ",
"...............................................  ",
"                                                 ",
"                                                 ",
"                                                 ",
"                                                 ",
"                                                 ",
"                                                 ",
"                                                 ",
"                                                 ",
"                                                 "};
