/* XPM */
static char * close_pressed_xpm[] = {
"49 29 443 2",
"  	c None",
". 	c #58544F",
"+ 	c #FCFCFC",
"@ 	c #433930",
"# 	c #DCE9FD",
"$ 	c #58534E",
"% 	c #D7C8BE",
"& 	c #AB8D78",
"* 	c #AC8D78",
"= 	c #AF8F79",
"- 	c #B2917B",
"; 	c #B5937D",
"> 	c #B8957F",
", 	c #BC9881",
"' 	c #BE9983",
") 	c #C19C86",
"! 	c #C49E88",
"~ 	c #C7A18A",
"{ 	c #CAA28C",
"] 	c #CCA58F",
"^ 	c #CDA58F",
"/ 	c #D0A892",
"( 	c #D1A993",
"_ 	c #D2AA93",
": 	c #D3AA94",
"< 	c #CEBBAE",
"[ 	c #41362D",
"} 	c #57514C",
"| 	c #3F3229",
"1 	c #554F4A",
"2 	c #3D2E23",
"3 	c #544B46",
"4 	c #D4C2B8",
"5 	c #A4816B",
"6 	c #A6816B",
"7 	c #A9826D",
"8 	c #AC856F",
"9 	c #B08771",
"0 	c #B38973",
"a 	c #B68B75",
"b 	c #B88E77",
"c 	c #BC9079",
"d 	c #BF937C",
"e 	c #C2967E",
"f 	c #C49880",
"g 	c #C79A82",
"h 	c #C99B83",
"i 	c #CB9D86",
"j 	c #CD9E86",
"k 	c #CE9F87",
"l 	c #867473",
"m 	c #535666",
"n 	c #857473",
"o 	c #CFA088",
"p 	c #B28973",
"q 	c #CBB3A6",
"r 	c #39281D",
"s 	c #524944",
"t 	c #D0BCB2",
"u 	c #9D765F",
"v 	c #A0765F",
"w 	c #A27861",
"x 	c #A57A62",
"y 	c #AA7D65",
"z 	c #AD7E66",
"A 	c #B08169",
"B 	c #B3836A",
"C 	c #B7866D",
"D 	c #BA886F",
"E 	c #BD8A72",
"F 	c #C08C73",
"G 	c #C28F76",
"H 	c #C49077",
"I 	c #C79379",
"J 	c #C8937A",
"K 	c #C9947B",
"L 	c #FFFFFF",
"M 	c #836F6E",
"N 	c #CA957C",
"O 	c #B9886F",
"P 	c #C5AD9F",
"Q 	c #362317",
"R 	c #504641",
"S 	c #CCB8AC",
"T 	c #976A53",
"U 	c #986B53",
"V 	c #9C6D54",
"W 	c #A06F56",
"X 	c #A47258",
"Y 	c #A6735A",
"Z 	c #AA765D",
"` 	c #AE785E",
" .	c #B17B61",
"..	c #B47D63",
"+.	c #B88066",
"@.	c #BA8167",
"#.	c #BD856A",
"$.	c #BF866A",
"%.	c #C1886D",
"&.	c #C2896E",
"*.	c #C38A6F",
"=.	c #816B69",
"-.	c #C48A6F",
";.	c #C1A698",
">.	c #331D12",
",.	c #4E443D",
"'.	c #C9B2A6",
").	c #8F5F47",
"!.	c #916047",
"~.	c #956149",
"{.	c #98644B",
"].	c #9D664D",
"^.	c #A1694F",
"/.	c #A46B51",
"(.	c #A76D53",
"_.	c #AB6F55",
":.	c #AF7358",
"<.	c #B2755B",
"[.	c #B4775D",
"}.	c #B8795F",
"|.	c #B87A60",
"1.	c #BC7D62",
"2.	c #BD7E63",
"3.	c #BE7F64",
"4.	c #BF8065",
"5.	c #7F6664",
"6.	c #7F6765",
"7.	c #AA6F55",
"8.	c #A1684F",
"9.	c #BDA091",
"0.	c #2F170D",
"a.	c #F0F0F0",
"b.	c #1A0901",
"c.	c #A28984",
"d.	c #410C01",
"e.	c #450C01",
"f.	c #4C0C01",
"g.	c #520C01",
"h.	c #580C01",
"i.	c #5D0D01",
"j.	c #620D01",
"k.	c #680C00",
"l.	c #6C0C00",
"m.	c #720C00",
"n.	c #760D00",
"o.	c #7B0F00",
"p.	c #7E1200",
"q.	c #801300",
"r.	c #841500",
"s.	c #861600",
"t.	c #871700",
"u.	c #881800",
"v.	c #683C3B",
"w.	c #E8E8E8",
"x.	c #7F1301",
"y.	c #7E1201",
"z.	c #7B0F01",
"A.	c #760D01",
"B.	c #720D01",
"C.	c #6C0D01",
"D.	c #670D01",
"E.	c #5C0D01",
"F.	c #570C01",
"G.	c #510C01",
"H.	c #8F6D67",
"I.	c #190400",
"J.	c #E3E3E3",
"K.	c #1A0A02",
"L.	c #A28A85",
"M.	c #430D02",
"N.	c #460D02",
"O.	c #4C0E02",
"P.	c #530E02",
"Q.	c #580E02",
"R.	c #5E0F02",
"S.	c #630F02",
"T.	c #680E01",
"U.	c #6C0E01",
"V.	c #721001",
"W.	c #761301",
"X.	c #7B1501",
"Y.	c #7E1801",
"Z.	c #801901",
"`.	c #851D01",
" +	c #871E01",
".+	c #881F01",
"++	c #693F3B",
"@+	c #DEDEDE",
"#+	c #683F3B",
"$+	c #892001",
"%+	c #841D01",
"&+	c #7A1501",
"*+	c #761302",
"=+	c #721002",
"-+	c #6C0E02",
";+	c #670E02",
">+	c #620F02",
",+	c #5D0F02",
"'+	c #520E02",
")+	c #906E67",
"!+	c #1A0501",
"~+	c #1B0C03",
"{+	c #A48C86",
"]+	c #441004",
"^+	c #481004",
"/+	c #4D1104",
"(+	c #531104",
"_+	c #5A1104",
":+	c #5E1204",
"<+	c #641204",
"[+	c #691303",
"}+	c #6C1703",
"|+	c #721A03",
"1+	c #771D03",
"2+	c #7A1F02",
"3+	c #7E2302",
"4+	c #802401",
"5+	c #842701",
"6+	c #852801",
"7+	c #872A01",
"8+	c #DADADA",
"9+	c #68433B",
"0+	c #882B02",
"a+	c #872A02",
"b+	c #852802",
"c+	c #842702",
"d+	c #802403",
"e+	c #7E2303",
"f+	c #7A1F03",
"g+	c #681303",
"h+	c #631204",
"i+	c #591104",
"j+	c #917068",
"k+	c #1A0602",
"l+	c #1B0F05",
"m+	c #A48D87",
"n+	c #461306",
"o+	c #491306",
"p+	c #501306",
"q+	c #541406",
"r+	c #5A1706",
"s+	c #5F1A06",
"t+	c #641D06",
"u+	c #692005",
"v+	c #6E2305",
"w+	c #742805",
"x+	c #782C05",
"y+	c #7A2E04",
"z+	c #7E3104",
"A+	c #813203",
"B+	c #843602",
"C+	c #863702",
"D+	c #873802",
"E+	c #684A3C",
"F+	c #684A3D",
"G+	c #873804",
"H+	c #68493D",
"I+	c #883904",
"J+	c #873805",
"K+	c #853705",
"L+	c #843605",
"M+	c #803205",
"N+	c #7E3106",
"O+	c #7A2E06",
"P+	c #772B06",
"Q+	c #732706",
"R+	c #6E2306",
"S+	c #692006",
"T+	c #631D06",
"U+	c #5E1A06",
"V+	c #4F1306",
"W+	c #93736B",
"X+	c #1B0802",
"Y+	c #1C1208",
"Z+	c #A78F89",
"`+	c #4B180A",
" @	c #4E1A0A",
".@	c #531D0A",
"+@	c #57200A",
"@@	c #5D250A",
"#@	c #63280A",
"$@	c #672C0A",
"%@	c #6C3009",
"&@	c #713309",
"*@	c #743609",
"=@	c #7A3A09",
"-@	c #7D3D08",
";@	c #814008",
">@	c #834207",
",@	c #87450A",
"'@	c #88460B",
")@	c #89470C",
"!@	c #8A480D",
"~@	c #834209",
"{@	c #814009",
"]@	c #7C3C09",
"^@	c #703309",
"/@	c #6B3009",
"(@	c #62280A",
"_@	c #571F0A",
":@	c #54200F",
"<@	c #987B72",
"[@	c #1F0B04",
"}@	c #1E150A",
"|@	c #A9978A",
"1@	c #4F290D",
"2@	c #522C0D",
"3@	c #562F0D",
"4@	c #5D320D",
"5@	c #62370D",
"6@	c #663B0D",
"7@	c #6B3F0D",
"8@	c #6F430C",
"9@	c #73460C",
"0@	c #784B0C",
"a@	c #7D4E0C",
"b@	c #80510E",
"c@	c #845511",
"d@	c #865612",
"e@	c #8A5914",
"f@	c #8B5A15",
"g@	c #8C5B16",
"h@	c #8D5C17",
"i@	c #7D4E0D",
"j@	c #784A0D",
"k@	c #73460D",
"l@	c #6E420D",
"m@	c #663A0D",
"n@	c #61370D",
"o@	c #5C320D",
"p@	c #633E1E",
"q@	c #9E8D80",
"r@	c #2B1909",
"s@	c #1F180C",
"t@	c #AB9E8B",
"u@	c #54380F",
"v@	c #573A0F",
"w@	c #5C3E0F",
"x@	c #61420F",
"y@	c #654610",
"z@	c #6A4A10",
"A@	c #6F4F10",
"B@	c #72510F",
"C@	c #775610",
"D@	c #7C5A13",
"E@	c #815E15",
"F@	c #836117",
"G@	c #87651A",
"H@	c #89661B",
"I@	c #8C691E",
"J@	c #8E6B1F",
"K@	c #8F6C20",
"L@	c #906D21",
"M@	c #765510",
"N@	c #6E4E10",
"O@	c #694910",
"P@	c #684A14",
"Q@	c #6F5425",
"R@	c #907D5D",
"S@	c #898173",
"T@	c #4C4238",
"U@	c #211B0E",
"V@	c #D0C8BB",
"W@	c #A88E65",
"X@	c #AE9264",
"Y@	c #B49864",
"Z@	c #BB9D63",
"`@	c #C1A262",
" #	c #C8A662",
".#	c #CDAB60",
"+#	c #D1AE5D",
"@#	c #D5B25A",
"##	c #DAB556",
"$#	c #DDB851",
"%#	c #E0BB4C",
"&#	c #E4BD46",
"*#	c #E6C03F",
"=#	c #E9C238",
"-#	c #EBC433",
";#	c #EDC72C",
">#	c #EFC826",
",#	c #F1C921",
"'#	c #F2CB1D",
")#	c #ECC533",
"!#	c #E9C239",
"~#	c #E7C140",
"{#	c #E5BE46",
"]#	c #E1BC4C",
"^#	c #DEB952",
"/#	c #DBB657",
"(#	c #D7B35B",
"_#	c #D3B05E",
":#	c #CFAC61",
"<#	c #CAA963",
"[#	c #C4A462",
"}#	c #BD9F63",
"|#	c #BB9E69",
"1#	c #AF966D",
"2#	c #847B6C",
"3#	c #2A2119",
"4#	c #C1D1E9",
"5#	c #A4CCFB",
"6#	c #272318",
"7#	c #1C180F",
"8#	c #312713",
"9#	c #322810",
"0#	c #372910",
"a#	c #3A2C0E",
"b#	c #3F2E0B",
"c#	c #43320B",
"d#	c #46340B",
"e#	c #4B370B",
"f#	c #503A0B",
"g#	c #543E0B",
"h#	c #57400B",
"i#	c #5B420A",
"j#	c #604709",
"k#	c #644B08",
"l#	c #674E08",
"m#	c #6C5008",
"n#	c #6B5308",
"o#	c #6E5608",
"p#	c #715808",
"q#	c #6C5308",
"r#	c #6D5208",
"s#	c #6A5008",
"t#	c #654B09",
"u#	c #63480A",
"v#	c #5F470A",
"w#	c #5B440C",
"x#	c #57400C",
"y#	c #533D0C",
"z#	c #4D390D",
"A#	c #4B360C",
"B#	c #44330C",
"C#	c #422F0D",
"D#	c #3C2D0F",
"E#	c #392A11",
"F#	c #4A3B1B",
"G#	c #554D3E",
"H#	c #C9DAF3",
"I#	c #9AC5F6",
"J#	c #A6CCFB",
". + + + + + + + + + + + + + + + + + + + + + + + + + + + + + + + + + + + + + + + + + + + + + + @ # ",
"$ % & * = - ; > , ' ) ! ~ { ] ^ / ( _ : _ : : : _ : _ : : _ : _ ( / ^ ] { ~ ! ) ' , > ; - = < [ # ",
"} % & * = - ; > , ' ) ! ~ { ] ^ / ( _ : _ : : : _ : _ : : _ : _ ( / ^ ] { ~ ! ) ' , > ; - = < | # ",
"1 % & * = - ; > , ' ) ! ~ { ] ^ / ( _ : _ : : : _ : _ : : _ : _ ( / ^ ] { ~ ! ) ' , > ; - = < 2 # ",
"3 4 5 6 7 8 9 0 a b c d e f g h i j k l m m m l k l m m m n o k j i h g f e d c b a p 9 8 7 q r # ",
"s t u v w x y z A B C D E F G H I J K m L L L m M m L L L m N K J I H G F E O C B A z y x w P Q # ",
"R S T U V W X Y Z `  ...+.@.#.$.%.&.*.=.m L L L m L L L m =.-.*.&.%.$.#.@.+... .` Z Y X W V ;.>.# ",
",.'.).!.~.{.].^./.(._.:.<.[.}.|.1.2.3.4.5.m L L L L L m 6.3.4.3.2.1.|.}.[.<.:.7.(./.8.].{.~.9.0.# ",
",.'.).!.~.{.].^./.(._.:.<.[.}.|.1.2.3.4.3.6.m a.a.a.m 6.4.3.4.3.2.1.|.}.[.<.:.7.(./.8.].{.~.9.0.# ",
"b.c.d.e.f.g.h.i.j.k.l.m.n.o.p.q.r.s.t.u.t.v.m w.w.w.m v.u.t.u.t.s.r.x.y.z.A.B.C.D.j.E.F.G.f.H.I.# ",
"b.c.d.e.f.g.h.i.j.k.l.m.n.o.p.q.r.s.t.u.v.m J.J.J.J.J.m v.t.u.t.s.r.x.y.z.A.B.C.D.j.E.F.G.f.H.I.# ",
"K.L.M.N.O.P.Q.R.S.T.U.V.W.X.Y.Z.`. +.+++m @+@+@+m @+@+@+m #+$+.+ +%+Z.Y.&+*+=+-+;+>+,+Q.'+O.)+!+# ",
"~+{+]+^+/+(+_+:+<+[+}+|+1+2+3+4+5+6+7+m 8+8+8+m 9+m 8+8+8+m 0+a+b+c+d+e+f+1+|+}+g+h+:+i+(+/+j+k+# ",
"l+m+n+o+p+q+r+s+t+u+v+w+x+y+z+A+B+C+D+E+m m m F+G+F+m m m H+I+J+K+L+M+N+O+P+Q+R+S+T+U+r+q+V+W+X+# ",
"Y+Z+`+ @.@+@@@#@$@%@&@*@=@-@;@>@,@'@)@!@)@!@!@!@)@!@)@!@!@)@!@)@'@,@~@{@]@=@*@^@/@$@(@@@_@:@<@[@# ",
"}@|@1@2@3@4@5@6@7@8@9@0@a@b@c@d@e@f@g@h@g@h@h@h@g@h@g@h@h@g@h@g@f@e@d@c@b@i@j@k@l@7@m@n@o@p@q@r@# ",
"s@t@u@v@w@x@y@z@A@B@C@D@E@F@G@H@I@J@K@L@K@L@L@L@K@L@K@L@L@K@L@K@J@I@H@G@F@E@D@M@B@N@O@P@Q@R@S@T@# ",
"U@V@W@X@Y@Z@`@ #.#+#@###$#%#&#*#=#-#;#>#,#'#'#>#;#)#!#'#>#;#)#!#~#{#]#^#/#(#_#:#<#[#}#|#1#2#3#4#5#",
"6#7#8#9#0#a#b#c#d#e#f#g#h#i#j#k#l#m#n#o#p#p#p#o#q#r#s#p#o#q#r#s#t#u#v#w#x#y#z#A#B#C#D#E#F#G#H#I#  ",
"# # # # # # # # # # # # # # # # # # # # # # # # # # # # # # # # # # # # # # # # # # # # # # J#    ",
"                                                                                                  ",
"                                                                                                  ",
"                                                                                                  ",
"                                                                                                  ",
"                                                                                                  ",
"                                                                                                  ",
"                                                                                                  ",
"                                                                                                  ",
"                                                                                                  "};
