/* XPM */
static char * close_prelight_xpm[] = {
"49 29 439 2",
"  	c None",
". 	c #402E2B",
"+ 	c #FCFCFC",
"@ 	c #5D433F",
"# 	c #DCE9FD",
"$ 	c #402D2A",
"% 	c #F3CEC8",
"& 	c #E6988C",
"* 	c #E8978C",
"= 	c #E9988C",
"- 	c #EB998C",
"; 	c #EC998B",
"> 	c #EE998B",
", 	c #F0998B",
"' 	c #F29A8A",
") 	c #F49B8B",
"! 	c #F79B8B",
"~ 	c #F89C8C",
"{ 	c #F99C8C",
"] 	c #FA9C8B",
"^ 	c #FB9D8B",
"/ 	c #F89B8B",
"( 	c #F69B8B",
"_ 	c #F39B8B",
": 	c #F19B8A",
"< 	c #EB988C",
"[ 	c #EFBCB4",
"} 	c #5D413D",
"| 	c #3F2B28",
"1 	c #5C3F3A",
"2 	c #3F2925",
"3 	c #5B3C37",
"4 	c #3D2623",
"5 	c #F2C9C3",
"6 	c #E38E82",
"7 	c #E48E83",
"8 	c #E58E82",
"9 	c #E68F82",
"0 	c #E88F82",
"a 	c #EA9082",
"b 	c #EB9182",
"c 	c #ED9181",
"d 	c #EF9181",
"e 	c #F19282",
"f 	c #F39382",
"g 	c #F59382",
"h 	c #F69381",
"i 	c #F79381",
"j 	c #F89482",
"k 	c #F99482",
"l 	c #976F70",
"m 	c #535666",
"n 	c #F49382",
"o 	c #F19382",
"p 	c #F09181",
"q 	c #E78F82",
"r 	c #EDB5AD",
"s 	c #5A3833",
"t 	c #3D2420",
"u 	c #F0C4BD",
"v 	c #E08476",
"w 	c #E08577",
"x 	c #E18577",
"y 	c #E38577",
"z 	c #E58677",
"A 	c #E68676",
"B 	c #E88677",
"C 	c #EB8777",
"D 	c #EC8877",
"E 	c #EF8877",
"F 	c #F08977",
"G 	c #F28976",
"H 	c #F38A77",
"I 	c #F58A77",
"J 	c #F68A76",
"K 	c #FFFFFF",
"L 	c #966B6C",
"M 	c #F68A77",
"N 	c #F18976",
"O 	c #EF8977",
"P 	c #ED8877",
"Q 	c #EA8677",
"R 	c #E78677",
"S 	c #E48577",
"T 	c #E28577",
"U 	c #EBAFA5",
"V 	c #59342F",
"W 	c #3C211C",
"X 	c #EEBEB7",
"Y 	c #DB796A",
"Z 	c #DC796B",
"` 	c #DE7A6A",
" .	c #DF7A6B",
"..	c #E17B6B",
"+.	c #E37C6B",
"@.	c #E57C6B",
"#.	c #E77C6B",
"$.	c #E97D6B",
"%.	c #EC7E6C",
"&.	c #EC7F6C",
"*.	c #EF7F6C",
"=.	c #F17F6C",
"-.	c #F27F6C",
";.	c #F3806B",
">.	c #946767",
",.	c #EE7F6B",
"'.	c #EA7D6C",
").	c #E87D6B",
"!.	c #E67C6B",
"~.	c #E27B6A",
"{.	c #E17A6B",
"].	c #DE7A6B",
"^.	c #E8A79E",
"/.	c #57302A",
"(.	c #3A1D19",
"_.	c #EBB9B1",
":.	c #D66D5D",
"<.	c #D76D5D",
"[.	c #D86E5D",
"}.	c #DA6F5E",
"|.	c #DC705E",
"1.	c #DE705D",
"2.	c #DF705D",
"3.	c #E3715D",
"4.	c #E4725C",
"5.	c #E6725D",
"6.	c #E9735D",
"7.	c #EB735E",
"8.	c #ED745D",
"9.	c #EF745D",
"0.	c #F1745E",
"a.	c #946262",
"b.	c #F0745D",
"c.	c #EE745D",
"d.	c #EA735E",
"e.	c #E7735D",
"f.	c #E2715D",
"g.	c #DD705D",
"h.	c #DC6E5E",
"i.	c #D96E5E",
"j.	c #E4A095",
"k.	c #552B25",
"l.	c #F0F0F0",
"m.	c #2C0701",
"n.	c #D39087",
"o.	c #A21906",
"p.	c #A41906",
"q.	c #A61A05",
"r.	c #A91B05",
"s.	c #AD1C05",
"t.	c #B01C05",
"u.	c #B41D05",
"v.	c #B71D04",
"w.	c #BB1E03",
"x.	c #C01E03",
"y.	c #C31F03",
"z.	c #C91F03",
"A.	c #CC2102",
"B.	c #CE2102",
"C.	c #D02202",
"D.	c #D22202",
"E.	c #87403C",
"F.	c #E8E8E8",
"G.	c #D12202",
"H.	c #CF2102",
"I.	c #CA1F03",
"J.	c #C72003",
"K.	c #C21F03",
"L.	c #BD1E03",
"M.	c #AC1B05",
"N.	c #A81B05",
"O.	c #C2695C",
"P.	c #400A02",
"Q.	c #E3E3E3",
"R.	c #2D0802",
"S.	c #D49288",
"T.	c #A41D08",
"U.	c #A61E08",
"V.	c #A81F08",
"W.	c #AC2008",
"X.	c #AF2108",
"Y.	c #B22107",
"Z.	c #B62107",
"`.	c #B92106",
" +	c #BD2206",
".+	c #C22306",
"++	c #C52306",
"@+	c #CA2405",
"#+	c #CD2505",
"$+	c #CF2505",
"%+	c #D22504",
"&+	c #D32504",
"*+	c #87413D",
"=+	c #DEDEDE",
"-+	c #D02505",
";+	c #CB2505",
">+	c #C82405",
",+	c #C42306",
"'+	c #BF2306",
")+	c #BC2206",
"!+	c #B82106",
"~+	c #B42107",
"{+	c #B12107",
"]+	c #AE2108",
"^+	c #AB2008",
"/+	c #C36C5D",
"(+	c #410C03",
"_+	c #2E0A04",
":+	c #D6968B",
"<+	c #A8250E",
"[+	c #AA250E",
"}+	c #AC270D",
"|+	c #AF280D",
"1+	c #B2290D",
"2+	c #B6290D",
"3+	c #B92A0C",
"4+	c #BD2A0B",
"5+	c #C12C0B",
"6+	c #C42D0A",
"7+	c #C82E0A",
"8+	c #CB2F0A",
"9+	c #CE300A",
"0+	c #D1310A",
"a+	c #D43109",
"b+	c #D63209",
"c+	c #DADADA",
"d+	c #88473F",
"e+	c #D23109",
"f+	c #CF300A",
"g+	c #CC300A",
"h+	c #CA2E0A",
"i+	c #C72D0A",
"j+	c #C22C0A",
"k+	c #C02B0B",
"l+	c #BC2A0B",
"m+	c #B82A0C",
"n+	c #B5290D",
"o+	c #AD280D",
"p+	c #C77161",
"q+	c #430F06",
"r+	c #2F0E05",
"s+	c #D99B8E",
"t+	c #AF3013",
"u+	c #B13113",
"v+	c #B23313",
"w+	c #B53413",
"x+	c #B73513",
"y+	c #BA3713",
"z+	c #BE3913",
"A+	c #C03913",
"B+	c #C53B13",
"C+	c #C93C12",
"D+	c #CC3E12",
"E+	c #CF3F12",
"F+	c #D14211",
"G+	c #D34111",
"H+	c #D64310",
"I+	c #D74410",
"J+	c #894E42",
"K+	c #D64410",
"L+	c #D44210",
"M+	c #D24111",
"N+	c #CF4111",
"O+	c #CE3E12",
"P+	c #CB3D12",
"Q+	c #C83C12",
"R+	c #C43A13",
"S+	c #BD3813",
"T+	c #BB3613",
"U+	c #CC7966",
"V+	c #451308",
"W+	c #321208",
"X+	c #DDA492",
"Y+	c #B7411C",
"Z+	c #B9431C",
"`+	c #B9451B",
" @	c #BC461B",
".@	c #BF481B",
"+@	c #C2491B",
"@@	c #C44B1B",
"#@	c #C94E1B",
"$@	c #CB501A",
"%@	c #CE511A",
"&@	c #D0541A",
"*@	c #D4551A",
"=@	c #D7571A",
"-@	c #D9581A",
";@	c #DA5A19",
">@	c #DB5A19",
",@	c #DA5919",
"'@	c #D8581A",
")@	c #D5561A",
"!@	c #D3551A",
"~@	c #D0531A",
"{@	c #CD511A",
"]@	c #CB4F1A",
"^@	c #C94C1B",
"/@	c #C54A1B",
"(@	c #C1491B",
"_@	c #BF471B",
":@	c #BB461B",
"<@	c #B9441B",
"[@	c #BA4620",
"}@	c #D08670",
"|@	c #4C1A0C",
"1@	c #34160B",
"2@	c #E2AC97",
"3@	c #C25227",
"4@	c #C25527",
"5@	c #C35626",
"6@	c #C55726",
"7@	c #CA5A26",
"8@	c #CC5C26",
"9@	c #CF6026",
"0@	c #D16125",
"a@	c #D36525",
"b@	c #D66725",
"c@	c #D86A25",
"d@	c #DB6B25",
"e@	c #DD6D24",
"f@	c #DF7025",
"g@	c #E07225",
"h@	c #E17225",
"i@	c #E07125",
"j@	c #DE6E24",
"k@	c #DC6C25",
"l@	c #DA6A25",
"m@	c #D76825",
"n@	c #D36625",
"o@	c #D26425",
"p@	c #D06025",
"q@	c #CF5F26",
"r@	c #CB5B26",
"s@	c #C95926",
"t@	c #C76035",
"u@	c #CD937E",
"v@	c #5C2914",
"w@	c #371B0E",
"x@	c #E6B49C",
"y@	c #CB6331",
"z@	c #CC6431",
"A@	c #CE6730",
"B@	c #D06A30",
"C@	c #D26D2F",
"D@	c #D4722F",
"E@	c #D5752E",
"F@	c #D7792E",
"G@	c #DB7C2E",
"H@	c #DC822E",
"I@	c #DE852E",
"J@	c #E0892E",
"K@	c #E28E2F",
"L@	c #E3902E",
"M@	c #E5932E",
"N@	c #E6942F",
"O@	c #E6942E",
"P@	c #E4912D",
"Q@	c #E28F2D",
"R@	c #E18B2E",
"S@	c #DF872E",
"T@	c #DE842E",
"U@	c #DC7F2E",
"V@	c #DA7B2E",
"W@	c #D7772E",
"X@	c #D5742F",
"Y@	c #D3702F",
"Z@	c #D06B33",
"`@	c #D27342",
" #	c #DB906C",
".#	c #A68271",
"+#	c #86523C",
"@#	c #3A1F11",
"##	c #F2D4C2",
"$#	c #E9AB80",
"%#	c #EAAF7F",
"&#	c #EBB27F",
"*#	c #EDB47E",
"=#	c #EFB87C",
"-#	c #EFBD7C",
";#	c #F1C27C",
">#	c #F1C97B",
",#	c #F3CC7A",
"'#	c #F3D179",
")#	c #F3D579",
"!#	c #F5D979",
"~#	c #F5DC78",
"{#	c #F5DE78",
"]#	c #F5E278",
"^#	c #F5E477",
"/#	c #F5E677",
"(#	c #F5E877",
"_#	c #F5DF78",
":#	c #F5DD78",
"<#	c #F4D679",
"[#	c #F3D27A",
"}#	c #F3CE79",
"|#	c #F2CA7B",
"1#	c #F1C57C",
"2#	c #F0C07C",
"3#	c #EFBA7C",
"4#	c #EDB77D",
"5#	c #EDB885",
"6#	c #D2A884",
"7#	c #9F7D68",
"8#	c #59341E",
"9#	c #C1D1E9",
"0#	c #A4CCFB",
"a#	c #28150A",
"b#	c #582E15",
"c#	c #582F15",
"d#	c #593014",
"e#	c #593214",
"f#	c #5B3414",
"g#	c #5B3614",
"h#	c #5C3815",
"i#	c #5D3B15",
"j#	c #5E3D14",
"k#	c #5F4015",
"l#	c #604315",
"m#	c #614515",
"n#	c #614715",
"o#	c #624915",
"p#	c #624B16",
"q#	c #634B16",
"r#	c #614815",
"s#	c #604415",
"t#	c #5F4115",
"u#	c #5F3F15",
"v#	c #5E3D15",
"w#	c #5D3A15",
"x#	c #5C3715",
"y#	c #5B3514",
"z#	c #5A3414",
"A#	c #593215",
"B#	c #743F1C",
"C#	c #9B5E3B",
"D#	c #C9DAF3",
"E#	c #9AC5F6",
"F#	c #A6CCFB",
". + + + + + + + + + + + + + + + + + + + + + + + + + + + + + + + + + + + + + + + + + + + + + + @ # ",
"$ % & & * = - ; > , ' ) ) ! ~ { ] ^ ^ ^ ^ ^ ^ ^ ^ ^ ] ^ ^ ^ ^ ] { ~ / ( ) _ : , > ; < = * & [ } # ",
"| % & & * = - ; > , ' ) ) ! ~ { ] ^ ^ ^ ^ ^ ^ ^ ^ ^ ] ^ ^ ^ ^ ] { ~ / ( ) _ : , > ; < = * & [ 1 # ",
"2 % & & * = - ; > , ' ) ) ! ~ { ] ^ ^ ^ ^ ^ ^ ^ ^ ^ ] ^ ^ ^ ^ ] { ~ / ( ) _ : , > ; < = * & [ 3 # ",
"4 5 6 7 8 9 0 a b c d e f g h i j k k l m m m l k l m m m l k k i h g n o p d c b a q 9 8 7 r s # ",
"t u v w x y z A B C D E F G H I J J J m K K K m L m K K K m J J M H G N O P C Q R A S T x w U V # ",
"W X Y Z `  ...+.@.#.$.%.&.*.=.-.;.;.;.>.m K K K m K K K m >.;.;.-.=.*.,.&.'.).!.@.~.{.].` Z ^./.# ",
"(._.:.<.[.}.|.1.2.3.4.5.6.7.8.8.9.0.0.0.a.m K K K K K m a.0.0.b.c.8.7.d.e.5.4.f.2.g.h.i.[.<.j.k.# ",
"(._.:.<.[.}.|.1.2.3.4.5.6.7.8.8.9.0.0.0.0.a.m l.l.l.m a.0.0.0.b.c.8.7.d.e.5.4.f.2.g.h.i.[.<.j.k.# ",
"m.n.o.p.q.r.s.t.u.v.w.x.y.z.A.B.C.D.D.D.D.E.m F.F.F.m E.D.D.D.G.H.A.I.J.K.L.w.v.u.t.M.N.q.p.O.P.# ",
"m.n.o.p.q.r.s.t.u.v.w.x.y.z.A.B.C.D.D.D.E.m Q.Q.Q.Q.Q.m E.D.D.G.H.A.I.J.K.L.w.v.u.t.M.N.q.p.O.P.# ",
"R.S.T.U.V.W.X.Y.Z.`. +.+++@+#+$+%+&+&+*+m =+=+=+m =+=+=+m *+&+%+-+$+;+>+,+'+)+!+~+{+]+^+V.U./+(+# ",
"_+:+<+[+}+|+1+2+3+4+5+6+7+8+9+0+a+b+b+m c+c+c+m d+m c+c+c+m b+a+e+f+g+h+i+j+k+l+m+n+1+o+}+[+p+q+# ",
"r+s+t+u+v+w+x+y+z+A+B+C+D+E+F+G+H+I+I+J+m m m J+I+J+m m m J+I+K+L+M+N+O+P+Q+R+A+S+T+x+w+v+u+U+V+# ",
"W+X+Y+Z+`+ @.@+@@@#@$@%@&@*@=@-@;@>@>@>@>@>@>@>@>@>@>@>@>@>@>@>@,@'@)@!@~@{@]@^@/@(@_@:@<@[@}@|@# ",
"1@2@3@4@5@6@7@8@9@0@a@b@c@d@e@f@g@h@h@h@h@h@h@h@h@h@g@h@h@h@h@g@i@j@k@l@m@n@o@p@q@r@s@6@5@t@u@v@# ",
"w@x@y@z@A@B@C@D@E@F@G@H@I@J@K@L@M@N@N@N@N@N@N@N@N@N@O@N@N@N@N@O@P@Q@R@S@T@U@V@W@X@Y@C@Z@`@ #.#+## ",
"@###$#%#&#*#=#-#;#>#,#'#)#!#~#{#]#^#^#/#(#(#(#/#^#^#]#(#/#^#^#]#_#:#!#<#[#}#|#1#2#3#4#5#6#7#8#9#0#",
"a#b#b#c#d#e#f#g#h#i#j#k#l#m#n#o#p#q#q#q#q#q#q#q#q#q#q#q#q#q#q#q#o#r#m#s#t#u#v#w#x#y#z#A#B#C#D#E#  ",
"# # # # # # # # # # # # # # # # # # # # # # # # # # # # # # # # # # # # # # # # # # # # # # F#    ",
"                                                                                                  ",
"                                                                                                  ",
"                                                                                                  ",
"                                                                                                  ",
"                                                                                                  ",
"                                                                                                  ",
"                                                                                                  ",
"                                                                                                  ",
"                                                                                                  "};
