/* XPM */
static char * hide_active_xpm[] = {
"29 29 2 1",
" 	c None",
".	c #B8D9FA s inactive_border_color",
".............................",
".............................",
".............................",
".............................",
".............................",
".............................",
".............................",
".............................",
".............................",
".............................",
".............................",
".............................",
".............................",
".............................",
".............................",
".............................",
".............................",
".............................",
" ............................",
"  ...........................",
"                             ",
"                             ",
"                             ",
"                             ",
"                             ",
"                             ",
"                             ",
"                             ",
"                             "};
