/* XPM */
static char * hide_prelight_xpm[] = {
"29 29 286 2",
"  	c None",
". 	c #DCE9FD",
"+ 	c #40505A",
"@ 	c #FCFCFC",
"# 	c #3D4F5A",
"$ 	c #CBE3F0",
"% 	c #A6CFE7",
"& 	c #A9D0E8",
"* 	c #A9D2EB",
"= 	c #ACD2EC",
"- 	c #ADD6EE",
"; 	c #B0D6F0",
"> 	c #B3D8F1",
", 	c #B4D9F2",
"' 	c #B6DAF2",
") 	c #B5DBF3",
"! 	c #B7DBF3",
"~ 	c #B6DBF3",
"{ 	c #B5DAF2",
"] 	c #B3D7F0",
"^ 	c #AFD5EF",
"/ 	c #ADD6ED",
"( 	c #ABD3EC",
"_ 	c #C4DFEF",
": 	c #3B4D59",
"< 	c #384B56",
"[ 	c #354855",
"} 	c #C8DFEF",
"| 	c #9EC8E4",
"1 	c #A0C9E5",
"2 	c #A3CCE6",
"3 	c #A4CEE8",
"4 	c #A7D1EC",
"5 	c #A9D2EC",
"6 	c #ACD5EE",
"7 	c #ADD6F0",
"8 	c #ADD7F1",
"9 	c #ADD8F1",
"0 	c #AED8F2",
"a 	c #ADD8F2",
"b 	c #AED9F2",
"c 	c #ADD6EF",
"d 	c #A9D4EE",
"e 	c #A7D2EC",
"f 	c #A7CFEB",
"g 	c #A5CDE8",
"h 	c #BEDBED",
"i 	c #304451",
"j 	c #C2DCEC",
"k 	c #96C3DF",
"l 	c #98C4E0",
"m 	c #9AC5E2",
"n 	c #9CC8E4",
"o 	c #9ECAE6",
"p 	c #A1CCE9",
"q 	c #A4CFEC",
"r 	c #A6D1EC",
"s 	c #A7D2ED",
"t 	c #A8D3EE",
"u 	c #A8D3EF",
"v 	c #A7D2EE",
"w 	c #A3CEEB",
"x 	c #A0CCE8",
"y 	c #B9D7EB",
"z 	c #2C414F",
"A 	c #BCD8EB",
"B 	c #8EBCDC",
"C 	c #90BEDC",
"D 	c #92BFDE",
"E 	c #94C1DF",
"F 	c #96C4E2",
"G 	c #98C7E4",
"H 	c #9BC8E6",
"I 	c #9CCAE8",
"J 	c #9ECCEA",
"K 	c #9FCCEB",
"L 	c #9FCDEC",
"M 	c #9FCDEB",
"N 	c #9ECCEB",
"O 	c #9ECCE9",
"P 	c #9AC8E6",
"Q 	c #98C6E3",
"R 	c #97C4E2",
"S 	c #90BDDC",
"T 	c #B3D2E8",
"U 	c #263E4C",
"V 	c #B5D4E7",
"W 	c #83B4D6",
"X 	c #85B5D7",
"Y 	c #87B7DA",
"Z 	c #8AB9DB",
"` 	c #8BBCDE",
" .	c #8EBEDF",
"..	c #91C1E1",
"+.	c #93C3E2",
"@.	c #95C5E4",
"#.	c #95C7E4",
"$.	c #96C7E5",
"%.	c #96C8E5",
"&.	c #95C8E5",
"*.	c #95C4E3",
"=.	c #92C3E2",
"-.	c #90C1E1",
";.	c #8DBEDF",
">.	c #8CBCDD",
",.	c #89B9DB",
"'.	c #87B7D9",
").	c #ACCEE3",
"!.	c #01233B",
"~.	c #6CA2C7",
"{.	c #025E9E",
"].	c #0562A0",
"^.	c #0867A3",
"/.	c #0E6BA8",
"(.	c #1270AC",
"_.	c #1975B2",
":.	c #1D78B6",
"<.	c #465F79",
"[.	c #535666",
"}.	c #1C78B4",
"|.	c #1674B0",
"1.	c #126FAB",
"2.	c #0D6AA7",
"3.	c #0867A2",
"4.	c #0561A0",
"5.	c #5896C0",
"6.	c #FFFFFF",
"7.	c #02243C",
"8.	c #6DA4C9",
"9.	c #04619F",
"0.	c #0763A1",
"a.	c #0C67A6",
"b.	c #106CA9",
"c.	c #1274B0",
"d.	c #187CB5",
"e.	c #1C82BA",
"f.	c #EEEEEE",
"g.	c #1983BA",
"h.	c #157CB4",
"i.	c #1272AE",
"j.	c #106CA8",
"k.	c #0C67A5",
"l.	c #0762A1",
"m.	c #5A96C0",
"n.	c #03253D",
"o.	c #70A6CB",
"p.	c #0863A3",
"q.	c #0D66A5",
"r.	c #116BA8",
"s.	c #1472AD",
"t.	c #167DB4",
"u.	c #1A88B9",
"v.	c #1A93C0",
"w.	c #E4E4E4",
"x.	c #1A92C0",
"y.	c #1787B8",
"z.	c #167EB3",
"A.	c #1272AD",
"B.	c #0D65A5",
"C.	c #5D99C2",
"D.	c #06273E",
"E.	c #77A9CD",
"F.	c #1269A7",
"G.	c #136BA8",
"H.	c #1771AD",
"I.	c #1A7AB3",
"J.	c #1C87BA",
"K.	c #1F92C0",
"L.	c #1F9CC4",
"M.	c #446C80",
"N.	c #1E9BC4",
"O.	c #1D91C0",
"P.	c #1D86B9",
"Q.	c #197AB2",
"R.	c #1771AC",
"S.	c #136AA8",
"T.	c #629BC4",
"U.	c #0B2D46",
"V.	c #7EAACB",
"W.	c #2173B0",
"X.	c #1E73AF",
"Y.	c #217BB5",
"Z.	c #2486BA",
"`.	c #2692C2",
" +	c #269FC8",
".+	c #26A9CD",
"++	c #25B1D1",
"@+	c #23B9D3",
"#+	c #21BDD5",
"$+	c #20BFD6",
"%+	c #23B9D2",
"&+	c #24B1D0",
"*+	c #26A8CE",
"=+	c #259FC8",
"-+	c #2692C1",
";+	c #2485BB",
">+	c #217BB4",
",+	c #1E71AF",
"'+	c #68A0CA",
")+	c #153855",
"!+	c #8EAFC9",
"~+	c #3884BB",
"{+	c #297BB7",
"]+	c #2B84BD",
"^+	c #2E90C3",
"/+	c #2F9ECD",
"(+	c #2FAAD2",
"_+	c #2EB5D5",
":+	c #2DBDD8",
"<+	c #2BC2DB",
"[+	c #29C6DC",
"}+	c #28CBDC",
"|+	c #27CDDC",
"1+	c #27CBDC",
"2+	c #2FB4D5",
"3+	c #2EAAD1",
"4+	c #2F9ECA",
"5+	c #2C91C3",
"6+	c #2B84BC",
"7+	c #6FA6CF",
"8+	c #CADFFD",
"9+	c #365F7D",
"0+	c #7E94A4",
"a+	c #79ADD5",
"b+	c #4792C7",
"c+	c #3993C7",
"d+	c #389CCF",
"e+	c #38A8D4",
"f+	c #39B6D9",
"g+	c #36C0DE",
"h+	c #34C7E1",
"i+	c #32CFE2",
"j+	c #2FD4E4",
"k+	c #2ED7E4",
"l+	c #2DD8E5",
"m+	c #36B6D8",
"n+	c #39A9D3",
"o+	c #379CCE",
"p+	c #3691C7",
"q+	c #3285BF",
"r+	c #77ABD4",
"s+	c #9EC9FB",
"t+	c #C1D1E9",
"u+	c #1B3A4E",
"v+	c #738B9B",
"w+	c #95B4CB",
"x+	c #A5DBEC",
"y+	c #9EE1EF",
"z+	c #99E8F3",
"A+	c #90EDF6",
"B+	c #82F2F8",
"C+	c #3AF7F8",
"D+	c #23FAFA",
"E+	c #19FCFA",
"F+	c #12FDFB",
"G+	c #0BFEFB",
"H+	c #06FEFB",
"I+	c #0BFDFB",
"J+	c #12FCFA",
"K+	c #19FAF9",
"L+	c #23F7F8",
"M+	c #3AF3F7",
"N+	c #82EEF5",
"O+	c #91E7F2",
"P+	c #97E1EF",
"Q+	c #9ED8EC",
"R+	c #9DD1E9",
"S+	c #96C3F6",
"T+	c #C9DAF3",
"U+	c #3B6C8E",
"V+	c #1D4A68",
"W+	c #153E53",
"X+	c #174356",
"Y+	c #174959",
"Z+	c #18515C",
"`+	c #17545E",
" @	c #16585F",
".@	c #165B60",
"+@	c #145F62",
"@@	c #136163",
"#@	c #136263",
"$@	c #18505C",
"%@	c #15384F",
"&@	c #13364E",
"*@	c #A0CAFB",
"=@	c #CFE2FC",
". + @ @ @ @ @ @ @ @ @ @ @ @ @ @ @ @ @ @ @ @ @ @ @ @ @ @ @ ",
". # $ % & * = - ; > , ' ) ! ~ ~ ~ ~ ~ ~ { , ] ^ / ( * & _ ",
". : $ % & * = - ; > , ' ) ! ~ ~ ~ ~ ~ ~ { , ] ^ / ( * & _ ",
". < $ % & * = - ; > , ' ) ! ~ ~ ~ ~ ~ ~ { , ] ^ / ( * & _ ",
". [ } | 1 2 3 4 5 6 7 8 9 0 a a a a b 8 7 c d e f g 2 1 h ",
". i j k l m n o p q r s t t u u u u t v s r w x o n m l y ",
". z A B C D E F G H I J K K L L L L M N O I P Q R E D S T ",
". U V W X Y Z `  ...+.@.#.$.%.%.%.%.&.#.*.=.-.;.>.,.'.X ).",
". U V W X Y Z `  ...+.@.#.$.%.%.%.%.&.#.*.=.-.;.>.,.'.X ).",
". !.~.{.].^./.(._.:.<.[.[.[.[.[.[.[.[.[.[.<.}.|.1.2.3.4.5.",
". !.~.{.].^./.(._.:.[.6.6.6.6.6.6.6.6.6.6.[.}.|.1.2.3.4.5.",
". 7.8.9.0.a.b.c.d.e.[.f.f.f.f.f.f.f.f.f.f.[.g.h.i.j.k.l.m.",
". n.o.p.q.r.s.t.u.v.[.w.w.w.w.w.w.w.w.w.w.[.x.y.z.A.r.B.C.",
". D.E.F.G.H.I.J.K.L.M.[.[.[.[.[.[.[.[.[.[.M.N.O.P.Q.R.S.T.",
". U.V.W.X.Y.Z.`. +.+++@+#+$+$+$+$+$+$+#+%+&+*+=+-+;+>+,+'+",
". )+!+~+{+]+^+/+(+_+:+<+[+}+|+|+|+|+1+[+<+:+2+3+4+5+6+{+7+",
"8+9+0+a+b+c+d+e+f+g+h+i+j+k+l+l+l+l+k+j+i+h+g+m+n+o+p+q+r+",
"s+t+u+v+w+x+y+z+A+B+C+D+E+F+G+G+G+G+H+I+J+K+L+M+N+O+P+Q+R+",
"  S+T+U+V+W+X+Y+Z+`+ @.@+@@@#@#@#@#@@@+@.@ @`+$@Y+X+W+%@&@",
"    *@=@. . . . . . . . . . . . . . . . . . . . . . . . . ",
"                                                          ",
"                                                          ",
"                                                          ",
"                                                          ",
"                                                          ",
"                                                          ",
"                                                          ",
"                                                          ",
"                                                          "};
