/* XPM */
static char * hide_pressed_xpm[] = {
"29 29 298 2",
"  	c None",
". 	c #DCE9FD",
"+ 	c #3F4950",
"@ 	c #FCFCFC",
"# 	c #3B464E",
"$ 	c #BCCEDA",
"% 	c #8FACC1",
"& 	c #90AEC1",
"* 	c #93B1C3",
"= 	c #96B2C5",
"- 	c #98B3C5",
"; 	c #99B6C8",
"> 	c #9CB8CA",
", 	c #9EB9CB",
"' 	c #9FBACC",
") 	c #A1BBCC",
"! 	c #9EBACB",
"~ 	c #9CB8C9",
"{ 	c #99B5C7",
"] 	c #94B2C4",
"^ 	c #92B0C2",
"/ 	c #B3C8D5",
"( 	c #35434B",
"_ 	c #2F3D47",
": 	c #273843",
"< 	c #80A2B8",
"[ 	c #82A4B9",
"} 	c #85A6BB",
"| 	c #88A8BC",
"1 	c #8AAABE",
"2 	c #8DACC0",
"3 	c #8EAEC1",
"4 	c #91AEC3",
"5 	c #93B0C4",
"6 	c #93B1C4",
"7 	c #93B1C5",
"8 	c #8EADC1",
"9 	c #8BACC0",
"0 	c #89A9BE",
"a 	c #86A7BC",
"b 	c #83A6BA",
"c 	c #A9C0CF",
"d 	c #1F323F",
"e 	c #A9C0D0",
"f 	c #6F96AF",
"g 	c #7197B0",
"h 	c #749AB3",
"i 	c #779CB3",
"j 	c #799EB5",
"k 	c #7DA1B7",
"l 	c #80A3B9",
"m 	c #83A5BA",
"n 	c #84A6BC",
"o 	c #83A5BC",
"p 	c #81A5BA",
"q 	c #7EA2B8",
"r 	c #7CA1B7",
"s 	c #7499B2",
"t 	c #9DB8CA",
"u 	c #172C3A",
"v 	c #9FB8CB",
"w 	c #5E8AA5",
"x 	c #618AA8",
"y 	c #648DA9",
"z 	c #6790AA",
"A 	c #6A93AC",
"B 	c #6E95AE",
"C 	c #7097B0",
"D 	c #7399B3",
"E 	c #749BB3",
"F 	c #769CB3",
"G 	c #769CB4",
"H 	c #749CB3",
"I 	c #739BB3",
"J 	c #7399B2",
"K 	c #6F97AF",
"L 	c #6C95AE",
"M 	c #6992AC",
"N 	c #668FAA",
"O 	c #628DA9",
"P 	c #92AFC2",
"Q 	c #F3F7FE",
"R 	c #142535",
"S 	c #9BB0C3",
"T 	c #587C9B",
"U 	c #597E9C",
"V 	c #5A809E",
"W 	c #5C85A3",
"X 	c #5D8CA6",
"Y 	c #5E92AA",
"Z 	c #5E9BAF",
"` 	c #5EA2B4",
" .	c #5EA5B8",
"..	c #5EA8B8",
"+.	c #5FAAB8",
"@.	c #5FAAB9",
"#.	c #5FA6B8",
"$.	c #5FA3B5",
"%.	c #609EB2",
"&.	c #6196AE",
"*.	c #5F8FAA",
"=.	c #5E8BA5",
"-.	c #5D85A3",
";.	c #5C829F",
">.	c #5A809D",
",.	c #587D9C",
"'.	c #8EA6BB",
").	c #020E19",
"!.	c #687A8D",
"~.	c #042140",
"{.	c #062343",
"].	c #082B4A",
"^.	c #0A3553",
"/.	c #0B405D",
"(.	c #0C4C66",
"_.	c #0C576E",
":.	c #40586A",
"<.	c #535666",
"[.	c #415467",
"}.	c #0F4562",
"|.	c #0F3B58",
"1.	c #0D2F4F",
"2.	c #0A2949",
"3.	c #082646",
"4.	c #062243",
"5.	c #55697E",
"6.	c #FFFFFF",
"7.	c #020E1A",
"8.	c #697B8E",
"9.	c #052342",
"0.	c #093151",
"a.	c #0A3E5A",
"b.	c #0B4B66",
"c.	c #0C5770",
"d.	c #0C6379",
"e.	c #EEEEEE",
"f.	c #0F4E6A",
"g.	c #0E415F",
"h.	c #0D3755",
"i.	c #0C2D4C",
"j.	c #092747",
"k.	c #072445",
"l.	c #556A7F",
"m.	c #030F1C",
"n.	c #6A7D91",
"o.	c #072547",
"p.	c #092D4D",
"q.	c #0B3958",
"r.	c #0C4664",
"s.	c #0C5470",
"t.	c #0C637B",
"u.	c #0C7485",
"v.	c #E4E4E4",
"w.	c #0F5873",
"x.	c #0F4B68",
"y.	c #0E3E5D",
"z.	c #0E3353",
"A.	c #0C2A4B",
"B.	c #092749",
"C.	c #576C83",
"D.	c #05111E",
"E.	c #708297",
"F.	c #0E2D4F",
"G.	c #0D3557",
"H.	c #0E4262",
"I.	c #0F506E",
"J.	c #0F5F7B",
"K.	c #0F7386",
"L.	c #0E8792",
"M.	c #3F6773",
"N.	c #405F6F",
"O.	c #12637E",
"P.	c #135471",
"Q.	c #124666",
"R.	c #103A5B",
"S.	c #0F2F52",
"T.	c #0D2B4F",
"U.	c #5A6F87",
"V.	c #071524",
"W.	c #76889B",
"X.	c #16395B",
"Y.	c #113E61",
"Z.	c #134B6B",
"`.	c #135A79",
" +	c #136D88",
".+	c #138393",
"++	c #12959E",
"@+	c #11A2A4",
"#+	c #0FB1AB",
"$+	c #0EBAB0",
"%+	c #0EBCB1",
"&+	c #11A3A5",
"*+	c #13989F",
"=+	c #138696",
"-+	c #15718A",
";+	c #155D7D",
">+	c #154E70",
",+	c #154264",
"'+	c #13375B",
")+	c #113156",
"!+	c #5D748C",
"~+	c #0E1E2F",
"{+	c #8392A2",
"]+	c #284A6D",
"^+	c #15456A",
"/+	c #175377",
"(+	c #176485",
"_+	c #177A92",
":+	c #1790A0",
"<+	c #15A3A9",
"[+	c #15B0B0",
"}+	c #13BFB8",
"|+	c #12C8BA",
"1+	c #12CABD",
"2+	c #15B1B0",
"3+	c #16A4AA",
"4+	c #1793A2",
"5+	c #197E96",
"6+	c #1A6989",
"7+	c #1A577B",
"8+	c #194A6F",
"9+	c #173E65",
"0+	c #163960",
"a+	c #617892",
"b+	c #CADFFD",
"c+	c #2B4053",
"d+	c #76818C",
"e+	c #65819B",
"f+	c #2F5D81",
"g+	c #1F5D84",
"h+	c #1C708F",
"i+	c #1C869D",
"j+	c #1B9CA9",
"k+	c #1AAEB1",
"l+	c #19BCB9",
"m+	c #18CCC1",
"n+	c #17D2C4",
"o+	c #16D6C5",
"p+	c #1AAFB2",
"q+	c #1D9FAB",
"r+	c #1E8AA0",
"s+	c #1E7693",
"t+	c #1E5E87",
"u+	c #1E5078",
"v+	c #1D466E",
"w+	c #1A3F68",
"x+	c #647C97",
"y+	c #9EC9FB",
"z+	c #C1D1E9",
"A+	c #132231",
"B+	c #6A7783",
"C+	c #869BAC",
"D+	c #96C2D1",
"E+	c #90CFD8",
"F+	c #8CDCE1",
"G+	c #86E7E9",
"H+	c #7AEFEF",
"I+	c #34F5F2",
"J+	c #1EF9F5",
"K+	c #17FBF7",
"L+	c #10FDF9",
"M+	c #0BFDFA",
"N+	c #06FEFB",
"O+	c #11FBF8",
"P+	c #17F7F5",
"Q+	c #1FF1F1",
"R+	c #35E9EB",
"S+	c #7BDDE4",
"T+	c #87D0DC",
"U+	c #8CC4D2",
"V+	c #8FB9CA",
"W+	c #8FB1C1",
"X+	c #96C3F6",
"Y+	c #C9DAF3",
"Z+	c #294359",
"`+	c #12253A",
" @	c #233745",
".@	c #27404D",
"+@	c #2A4755",
"@@	c #2B505D",
"#@	c #2B5864",
"$@	c #13606B",
"%@	c #0F6773",
"&@	c #0F6D78",
"*@	c #0E727D",
"=@	c #0E7781",
"-@	c #0E7A84",
";@	c #0E727C",
">@	c #0E6C77",
",@	c #0D6670",
"'@	c #125E69",
")@	c #2A5662",
"!@	c #2A4D5A",
"~@	c #274553",
"{@	c #243D4A",
"]@	c #213644",
"^@	c #A0CAFB",
"/@	c #CFE2FC",
". + @ @ @ @ @ @ @ @ @ @ @ @ @ @ @ @ @ @ @ @ @ @ @ @ @ @ @ ",
". # $ % & * = - ; > , ' ' ) ) ) ) ) ) ' ! , ~ { - ] ^ & / ",
". ( $ % & * = - ; > , ' ' ) ) ) ) ) ) ' ! , ~ { - ] ^ & / ",
". _ $ % & * = - ; > , ' ' ) ) ) ) ) ) ' ! , ~ { - ] ^ & / ",
". : / < [ } | 1 2 3 4 5 5 6 7 7 7 7 6 5 5 4 8 9 0 a b [ c ",
". d e f g h i j k l m n n a a a a a a n o p q r j i s g t ",
". u v w x y z A B C D E F F G G G G F H I J K L M N O x P ",
"Q u v w x y z A B C D E F F G G G G F H I J K L M N O x P ",
". R S T U V W X Y Z `  ...+.@.@.@.@.#.$.%.&.*.=.-.;.>.,.'.",
". ).!.~.{.].^./.(._.:.<.<.<.<.<.<.<.<.<.<.[.}.|.1.2.3.4.5.",
". ).!.~.{.].^./.(._.<.6.6.6.6.6.6.6.6.6.6.<.}.|.1.2.3.4.5.",
". 7.8.9.3.0.a.b.c.d.<.e.e.e.e.e.e.e.e.e.e.<.f.g.h.i.j.k.l.",
". m.n.o.p.q.r.s.t.u.<.v.v.v.v.v.v.v.v.v.v.<.w.x.y.z.A.B.C.",
". D.E.F.G.H.I.J.K.L.M.<.<.<.<.<.<.<.<.<.<.N.O.P.Q.R.S.T.U.",
". V.W.X.Y.Z.`. +.+++@+#+$+%+$+$+$+$+#+&+*+=+-+;+>+,+'+)+!+",
". ~+{+]+^+/+(+_+:+<+[+}+|+1+|+|+|+|+}+2+3+4+5+6+7+8+9+0+a+",
"b+c+d+e+f+g+h+i+j+k+l+m+n+o+n+n+n+n+m+l+p+q+r+s+t+u+v+w+x+",
"y+z+A+B+C+D+E+F+G+H+I+J+K+L+M+M+M+M+N+M+O+P+Q+R+S+T+U+V+W+",
"  X+Y+Z+`+ @.@+@@@#@$@%@&@*@=@=@=@=@-@=@;@>@,@'@)@!@~@{@]@",
"    ^@/@. . . . . . . . . . . . . . . . . . . . . . . . . ",
"                                                          ",
"                                                          ",
"                                                          ",
"                                                          ",
"                                                          ",
"                                                          ",
"                                                          ",
"                                                          ",
"                                                          "};
