/* XPM */
static char * maximize_pressed_xpm[] = {
"27 29 274 2",
"  	c None",
". 	c #7C878F",
"+ 	c #FCFCFC",
"@ 	c #76838D",
"# 	c #CAD8E1",
"$ 	c #8FACC1",
"% 	c #90AEC1",
"& 	c #93B0C2",
"* 	c #96B2C5",
"= 	c #98B3C5",
"- 	c #9AB6C8",
"; 	c #9DB8CA",
"> 	c #9EB9CB",
", 	c #A1BBCC",
"' 	c #A2BBCD",
") 	c #A2BCCD",
"! 	c #9FBACB",
"~ 	c #9EB9CA",
"{ 	c #9CB7C8",
"] 	c #93B1C3",
"^ 	c #B3C8D5",
"/ 	c #6F7E89",
"( 	c #687885",
"_ 	c #5F727F",
": 	c #C1D3DD",
"< 	c #80A2B8",
"[ 	c #82A4B9",
"} 	c #85A6BA",
"| 	c #88A7BC",
"1 	c #8AA9BE",
"2 	c #8DADC0",
"3 	c #6B7A8B",
"4 	c #535666",
"5 	c #6D7B8C",
"6 	c #91AEC3",
"7 	c #8EADC1",
"8 	c #8AAABE",
"9 	c #88A8BD",
"0 	c #85A6BB",
"a 	c #A9C0CF",
"b 	c #546A79",
"c 	c #B9CDD9",
"d 	c #6F96AF",
"e 	c #7197B0",
"f 	c #7499B2",
"g 	c #779CB3",
"h 	c #799EB5",
"i 	c #7DA1B7",
"j 	c #FFFFFF",
"k 	c #81A4B9",
"l 	c #7EA1B8",
"m 	c #7A9FB5",
"n 	c #789CB4",
"o 	c #759AB3",
"p 	c #4A6373",
"q 	c #B2C7D4",
"r 	c #5E89A5",
"s 	c #618AA7",
"t 	c #648DA9",
"u 	c #678FAA",
"v 	c #6A92AC",
"w 	c #6E96AE",
"x 	c #7398B2",
"y 	c #6B93AC",
"z 	c #6790AB",
"A 	c #618AA8",
"B 	c #92AFC2",
"C 	c #465A6E",
"D 	c #AEC0CF",
"E 	c #587C9B",
"F 	c #597D9C",
"G 	c #5A809D",
"H 	c #5C85A3",
"I 	c #5D8BA6",
"J 	c #5E93AA",
"K 	c #F0F0F0",
"L 	c #5FAAB9",
"M 	c #60AAB9",
"N 	c #6192AB",
"O 	c #5F8CA7",
"P 	c #5E86A3",
"Q 	c #5C83A1",
"R 	c #5A809E",
"S 	c #597E9C",
"T 	c #8EA6BB",
"U 	c #021323",
"V 	c #8694A3",
"W 	c #04213F",
"X 	c #062242",
"Y 	c #082A4A",
"Z 	c #0A3553",
"` 	c #0B405C",
" .	c #0D4C66",
"..	c #E8E8E8",
"+.	c #0D6F80",
"@.	c #114764",
"#.	c #103B59",
"$.	c #0E3150",
"%.	c #0C2A4A",
"&.	c #082646",
"*.	c #072343",
"=.	c #55697D",
"-.	c #E3E3E3",
";.	c #031325",
">.	c #8695A4",
",.	c #052242",
"'.	c #082546",
").	c #093150",
"!.	c #0A3D5A",
"~.	c #0B4B66",
"{.	c #0C5870",
"].	c #DEDEDE",
"^.	c #10506B",
"/.	c #104461",
"(.	c #0E3856",
"_.	c #0C2D4E",
":.	c #0A2848",
"<.	c #082445",
"[.	c #556A7F",
"}.	c #041527",
"|.	c #8796A6",
"1.	c #072547",
"2.	c #092C4C",
"3.	c #0B3857",
"4.	c #0C4664",
"5.	c #0C546F",
"6.	c #0D637B",
"7.	c #DADADA",
"8.	c #105A75",
"9.	c #104D69",
"0.	c #0F405E",
"a.	c #0E3353",
"b.	c #0C2B4C",
"c.	c #092849",
"d.	c #576C83",
"e.	c #07172B",
"f.	c #8A99A9",
"g.	c #0C2A4D",
"h.	c #0D3456",
"i.	c #0E4162",
"j.	c #0F4F6E",
"k.	c #0F5E7A",
"l.	c #0F7386",
"m.	c #366A77",
"n.	c #386474",
"o.	c #13657F",
"p.	c #135574",
"q.	c #134766",
"r.	c #123A5C",
"s.	c #0F3052",
"t.	c #0D2C4F",
"u.	c #5A6F86",
"v.	c #091B30",
"w.	c #8C9BAD",
"x.	c #103256",
"y.	c #113D61",
"z.	c #134A6B",
"A.	c #135979",
"B.	c #136D86",
"C.	c #138393",
"D.	c #12959E",
"E.	c #11A2A4",
"F.	c #0FB1AB",
"G.	c #0EBAB0",
"H.	c #0EBCB1",
"I.	c #0FB2AB",
"J.	c #12A4A5",
"K.	c #1399A0",
"L.	c #148797",
"M.	c #16738B",
"N.	c #165F7F",
"O.	c #164F71",
"P.	c #154266",
"Q.	c #13375C",
"R.	c #133256",
"S.	c #5D738C",
"T.	c #0D1F36",
"U.	c #8F9FB1",
"V.	c #153A60",
"W.	c #15456A",
"X.	c #175376",
"Y.	c #176385",
"Z.	c #177A92",
"`.	c #1790A0",
" +	c #16A3A9",
".+	c #15B0B0",
"++	c #13BFB8",
"@+	c #12C8BA",
"#+	c #12CABD",
"$+	c #13C8BB",
"%+	c #15B1B0",
"&+	c #17A6AB",
"*+	c #1894A2",
"=+	c #1A8098",
"-+	c #1B6B8A",
";+	c #1B587C",
">+	c #1A4B70",
",+	c #183F66",
"'+	c #173960",
")+	c #617892",
"!+	c #10233A",
"~+	c #90A2B5",
"{+	c #194169",
"]+	c #1A4C73",
"^+	c #1B5981",
"/+	c #1C6F8F",
"(+	c #1C869C",
"_+	c #1B9CA9",
":+	c #1AAEB1",
"<+	c #19BCB9",
"[+	c #18CCC1",
"}+	c #17D2C4",
"|+	c #16D6C5",
"1+	c #19BDBA",
"2+	c #1BAFB2",
"3+	c #1DA0AC",
"4+	c #1F8BA1",
"5+	c #1F7795",
"6+	c #1F5F87",
"7+	c #1F5079",
"8+	c #1D466E",
"9+	c #1B3F68",
"0+	c #647C97",
"a+	c #132840",
"b+	c #CADAE2",
"c+	c #8FB8C9",
"d+	c #8DC4D2",
"e+	c #8AD1DB",
"f+	c #84DDE3",
"g+	c #6EE7EA",
"h+	c #34EFEF",
"i+	c #20F5F3",
"j+	c #19F9F6",
"k+	c #13FBF8",
"l+	c #0FFDF9",
"m+	c #0AFDFA",
"n+	c #06FEFB",
"o+	c #0FFCF9",
"p+	c #13FAF7",
"q+	c #1AF6F4",
"r+	c #21F0F1",
"s+	c #35E9EB",
"t+	c #6FDFE5",
"u+	c #85D4DE",
"v+	c #8ACAD6",
"w+	c #8EC0CF",
"x+	c #8FB7C8",
"y+	c #366277",
"z+	c #02152A",
"A+	c #021830",
"B+	c #06233C",
"C+	c #0A364E",
"D+	c #104B61",
"E+	c #135F71",
"F+	c #14717F",
"G+	c #137E89",
"H+	c #10878F",
"I+	c #0B8E94",
"J+	c #069497",
"K+	c #019799",
"L+	c #00989A",
"M+	c #029799",
"N+	c #059497",
"O+	c #0A8E94",
"P+	c #0E8891",
"Q+	c #12808D",
"R+	c #137589",
"S+	c #136983",
"T+	c #115B7E",
"U+	c #0E4D77",
"V+	c #084073",
"W+	c #04386F",
"X+	c #387599",
"Y+	c #DCE9FD",
". + + + + + + + + + + + + + + + + + + + + + + + + + + ",
"@ # $ % & * = - ; > , , ' ' ' ) ) ' , ! ~ { = * ] % ^ ",
"/ # $ % & * = - ; > , , ' ' ' ) ) ' , ! ~ { = * ] % ^ ",
"( # $ % & * = - ; > , , ' ' ' ) ) ' , ! ~ { = * ] % ^ ",
"_ : < [ } | 1 2 3 4 4 4 4 4 4 4 4 4 4 5 6 7 8 9 0 [ a ",
"b c d e f g h i 4 j j j j j j j j j j 4 k l m n o e ; ",
"p q r s t u v w 4 j j j j j j j j j j 4 x d y z t A B ",
"p q r s t u v w 4 j j 4 4 4 4 4 4 j j 4 x d y z t A B ",
"C D E F G H I J 4 K K 4 L L L M 4 K K 4 N O P Q R S T ",
"U V W X Y Z `  .4 ....4 +.+.+.+.4 ....4 @.#.$.%.&.*.=.",
"U V W X Y Z `  .4 -.-.4 4 4 4 4 4 -.-.4 @.#.$.%.&.*.=.",
";.>.,.'.).!.~.{.4 ].].].].].].].].].].4 ^./.(._.:.<.[.",
"}.|.1.2.3.4.5.6.4 7.7.7.7.7.7.7.7.7.7.4 8.9.0.a.b.c.d.",
"e.f.g.h.i.j.k.l.m.4 4 4 4 4 4 4 4 4 4 n.o.p.q.r.s.t.u.",
"v.w.x.y.z.A.B.C.D.E.F.G.H.H.H.G.I.J.K.L.M.N.O.P.Q.R.S.",
"T.U.V.W.X.Y.Z.`. +.+++@+#+#+#+$+++%+&+*+=+-+;+>+,+'+)+",
"!+~+{+]+^+/+(+_+:+<+[+}+|+|+|+}+[+1+2+3+4+5+6+7+8+9+0+",
"a+b+c+d+e+f+g+h+i+j+k+l+m+m+m+n+m+o+p+q+r+s+t+u+v+w+x+",
"y+z+A+B+C+D+E+F+G+H+I+J+K+L+L+M+N+O+P+Q+R+S+T+U+V+W+X+",
"Y+Y+Y+Y+Y+Y+Y+Y+Y+Y+Y+Y+Y+Y+Y+Y+Y+Y+Y+Y+Y+Y+Y+Y+Y+Y+Y+",
"                                                      ",
"                                                      ",
"                                                      ",
"                                                      ",
"                                                      ",
"                                                      ",
"                                                      ",
"                                                      ",
"                                                      "};
