/* XPM */
static char * maximize_prelight_xpm[] = {
"27 29 273 2",
"  	c None",
". 	c #5F7180",
"+ 	c #FCFCFC",
"@ 	c #5D707D",
"# 	c #D6E6F3",
"$ 	c #A6CCE6",
"% 	c #A8CDE7",
"& 	c #AACFE8",
"* 	c #ACD0EB",
"= 	c #AED4EC",
"- 	c #B0D5ED",
"; 	c #B1D7EF",
"> 	c #B4D9F0",
", 	c #B6DAF1",
"' 	c #B6DAF2",
") 	c #B7DBF2",
"! 	c #B5DBF3",
"~ 	c #B5D9F1",
"{ 	c #B3D7F0",
"] 	c #B2D5EE",
"^ 	c #AFD4EC",
"/ 	c #A9D0E8",
"( 	c #A8CEE7",
"_ 	c #C2DEED",
": 	c #596D7C",
"< 	c #546C7A",
"[ 	c #4F6777",
"} 	c #D2E4F0",
"| 	c #9DC8E1",
"1 	c #9FC9E3",
"2 	c #A1CBE5",
"3 	c #A3CDE7",
"4 	c #A6CFE8",
"5 	c #A9D2EB",
"6 	c #76889B",
"7 	c #535666",
"8 	c #77899C",
"9 	c #ACD4ED",
"0 	c #A9D2EC",
"a 	c #A7CFE9",
"b 	c #A4CDE7",
"c 	c #A2CBE4",
"d 	c #BEDAEA",
"e 	c #4A6174",
"f 	c #CFE2EF",
"g 	c #96BFDE",
"h 	c #98C2DE",
"i 	c #9BC3E0",
"j 	c #9DC6E2",
"k 	c #9FC9E4",
"l 	c #A1CBE6",
"m 	c #FFFFFF",
"n 	c #A6CFEA",
"o 	c #A3CCE6",
"p 	c #A0C9E5",
"q 	c #9DC7E2",
"r 	c #9AC4E0",
"s 	c #B9D5E9",
"t 	c #425D6F",
"u 	c #C9DFEC",
"v 	c #8CBAD8",
"w 	c #8EBBD9",
"x 	c #90BEDC",
"y 	c #92BFDE",
"z 	c #97C4DF",
"A 	c #98C5E2",
"B 	c #9CC8E5",
"C 	c #99C6E3",
"D 	c #97C4E0",
"E 	c #93BFDE",
"F 	c #92BFDC",
"G 	c #8EBCD9",
"H 	c #B1D0E6",
"I 	c #3B576A",
"J 	c #C3DBEA",
"K 	c #82B1D3",
"L 	c #83B2D5",
"M 	c #86B6D6",
"N 	c #87B7DA",
"O 	c #8CBADB",
"P 	c #8EBEDE",
"Q 	c #93C1E0",
"R 	c #90BEDF",
"S 	c #8CBBDC",
"T 	c #88B8DA",
"U 	c #87B6D7",
"V 	c #83B3D5",
"W 	c #ABCBE2",
"X 	c #F0F0F0",
"Y 	c #97C8E4",
"Z 	c #96C6E4",
"` 	c #012A48",
" .	c #8AB4D1",
"..	c #025C9A",
"+.	c #055F9D",
"@.	c #09649F",
"#.	c #0E69A4",
"$.	c #136EA8",
"%.	c #1971AC",
"&.	c #E8E8E8",
"*.	c #2881BB",
"=.	c #2982BC",
"-.	c #1F79B3",
";.	c #1B74AF",
">.	c #146EA9",
",.	c #106AA6",
"'.	c #09639F",
").	c #05609D",
"!.	c #5793BB",
"~.	c #E3E3E3",
"{.	c #032B49",
"].	c #8BB5D2",
"^.	c #045E9B",
"/.	c #07609F",
"(.	c #0D65A1",
"_.	c #106EA7",
":.	c #1475AC",
"<.	c #167DB2",
"[.	c #DEDEDE",
"}.	c #207FB7",
"|.	c #1C78B1",
"1.	c #156FAB",
"2.	c #126BA7",
"3.	c #0D64A1",
"4.	c #5894BC",
"5.	c #052D4B",
"6.	c #8CB6D3",
"7.	c #08619D",
"8.	c #0C64A0",
"9.	c #116CA5",
"0.	c #1376AC",
"a.	c #1783B4",
"b.	c #178DB9",
"c.	c #DADADA",
"d.	c #208BBB",
"e.	c #1E82B5",
"f.	c #1B75B0",
"g.	c #156DA9",
"h.	c #1267A4",
"i.	c #5B96BE",
"j.	c #0A304D",
"k.	c #91B8D4",
"l.	c #1166A2",
"m.	c #146AA5",
"n.	c #1775AC",
"o.	c #1981B5",
"p.	c #1C8FB9",
"q.	c #1C9AC0",
"r.	c #3D758C",
"s.	c #3F728B",
"t.	c #2495C2",
"u.	c #248ABB",
"v.	c #217DB5",
"w.	c #1E74AF",
"x.	c #186DA9",
"y.	c #609AC2",
"z.	c #0F3553",
"A.	c #95BBD7",
"B.	c #196DA8",
"C.	c #1C74AE",
"D.	c #2181B5",
"E.	c #218DBC",
"F.	c #2499C2",
"G.	c #25A6CA",
"H.	c #24AFCF",
"I.	c #23B7D1",
"J.	c #21BCD3",
"K.	c #21BED5",
"L.	c #21BFD6",
"M.	c #22BDD5",
"N.	c #25BAD3",
"O.	c #28B2D1",
"P.	c #28ABCF",
"Q.	c #2BA1C9",
"R.	c #2A94C3",
"S.	c #2888BC",
"T.	c #267DB6",
"U.	c #2273B0",
"V.	c #1E70AC",
"W.	c #679FC7",
"X.	c #143B58",
"Y.	c #99BEDA",
"Z.	c #2576B0",
"`.	c #2780B7",
" +	c #2B8DBE",
".+	c #2C98C5",
"++	c #2DA6CE",
"@+	c #2DB2D2",
"#+	c #2DBBD7",
"$+	c #2BC1DA",
"%+	c #29C6DC",
"&+	c #28CBDB",
"*+	c #27CDDC",
"=+	c #2DC2DB",
"-+	c #30BED8",
";+	c #31B6D5",
">+	c #32ACD2",
",+	c #33A0CD",
"'+	c #3393C4",
")+	c #3187BE",
"!+	c #2E7DB7",
"~+	c #2879B3",
"{+	c #6FA4CB",
"]+	c #1B415D",
"^+	c #9EC3E0",
"/+	c #3080BB",
"(+	c #3289C0",
"_+	c #3498C7",
":+	c #35A5CF",
"<+	c #34B3D5",
"[+	c #35BEDC",
"}+	c #34C6DF",
"|+	c #32CEE2",
"1+	c #2FD4E4",
"2+	c #2ED7E5",
"3+	c #2ED8E5",
"4+	c #34CFE2",
"5+	c #37C9E1",
"6+	c #38C2DF",
"7+	c #3CB8DA",
"8+	c #3CACD6",
"9+	c #3C9FD0",
"0+	c #3992C7",
"a+	c #3686BF",
"b+	c #3381BB",
"c+	c #76AAD2",
"d+	c #244964",
"e+	c #D2E8F2",
"f+	c #9BD6E9",
"g+	c #99DEED",
"h+	c #95E4F0",
"i+	c #8CEBF4",
"j+	c #75F0F6",
"k+	c #3AF5F7",
"l+	c #24F8F8",
"m+	c #1CFBFA",
"n+	c #15FCFA",
"o+	c #10FDFB",
"p+	c #0AFEFB",
"q+	c #06FEFB",
"r+	c #16FBFA",
"s+	c #1DF9F9",
"t+	c #25F6F8",
"u+	c #3BF2F6",
"v+	c #77ECF4",
"w+	c #8FE6F2",
"x+	c #95E0EE",
"y+	c #99DAEB",
"z+	c #9BD3E8",
"A+	c #152F41",
"B+	c #13344C",
"C+	c #13364D",
"D+	c #143B50",
"E+	c #154152",
"F+	c #174957",
"G+	c #174F5B",
"H+	c #17535E",
"I+	c #16585F",
"J+	c #165B60",
"K+	c #145E62",
"L+	c #136163",
"M+	c #136263",
"N+	c #145F62",
"O+	c #17585F",
"P+	c #18565F",
"Q+	c #19515D",
"R+	c #194B59",
"S+	c #194456",
"T+	c #183E53",
"U+	c #16394F",
"V+	c #14364D",
"W+	c #FEFEFE",
"X+	c #DCE9FD",
". + + + + + + + + + + + + + + + + + + + + + + + + + + ",
"@ # $ % & * = - ; > , ' ) ) ) ! ) ) ' ~ { ] ^ * / ( _ ",
": # $ % & * = - ; > , ' ) ) ) ! ) ) ' ~ { ] ^ * / ( _ ",
"< # $ % & * = - ; > , ' ) ) ) ! ) ) ' ~ { ] ^ * / ( _ ",
"[ } | 1 2 3 4 5 6 7 7 7 7 7 7 7 7 7 7 8 9 0 a b c 1 d ",
"e f g h i j k l 7 m m m m m m m m m m 7 n o p q r h s ",
"t u v w x y z A 7 m m m m m m m m m m 7 B C D E F G H ",
"I J K L M N O P 7 m m 7 7 7 7 7 7 m m 7 Q R S T U V W ",
"I J K L M N O P 7 X X 7 Y Y Y Z 7 X X 7 Q R S T U V W ",
"`  ...+.@.#.$.%.7 &.&.7 *.*.*.=.7 &.&.7 -.;.>.,.'.).!.",
"`  ...+.@.#.$.%.7 ~.~.7 7 7 7 7 7 ~.~.7 -.;.>.,.'.).!.",
"{.].^./.(._.:.<.7 [.[.[.[.[.[.[.[.[.[.7 }.|.1.2.3./.4.",
"5.6.7.8.9.0.a.b.7 c.c.c.c.c.c.c.c.c.c.7 d.e.f.g.h.8.i.",
"j.k.l.m.n.o.p.q.r.7 7 7 7 7 7 7 7 7 7 s.t.u.v.w.x.m.y.",
"z.A.B.C.D.E.F.G.H.I.J.K.L.L.L.L.M.N.O.P.Q.R.S.T.U.V.W.",
"X.Y.Z.`. +.+++@+#+$+%+&+*+*+*+&+%+=+-+;+>+,+'+)+!+~+{+",
"]+^+/+(+_+:+<+[+}+|+1+2+3+3+3+2+1+4+5+6+7+8+9+0+a+b+c+",
"d+e+f+g+h+i+j+k+l+m+n+o+p+p+p+q+p+o+r+s+t+u+v+w+x+y+z+",
"A+B+C+D+E+F+G+H+I+J+K+L+M+M+M+L+N+J+O+P+Q+R+S+T+U+V+B+",
"W+W+W+W+W+W+W+W+W+W+W+W+W+W+W+W+W+W+W+W+W+W+W+W+W+X+X+",
"                                                      ",
"                                                      ",
"                                                      ",
"                                                      ",
"                                                      ",
"                                                      ",
"                                                      ",
"                                                      ",
"                                                      "};
