/* XPM */
static char * maximize_toggled_pressed_xpm[] = {
"27 29 273 2",
"  	c None",
". 	c #7C878F",
"+ 	c #FCFCFC",
"@ 	c #76838D",
"# 	c #CAD8E1",
"$ 	c #8FACC1",
"% 	c #90AEC1",
"& 	c #93B0C2",
"* 	c #96B2C5",
"= 	c #98B3C5",
"- 	c #9AB6C8",
"; 	c #9DB8CA",
"> 	c #9EB9CB",
", 	c #A1BBCC",
"' 	c #A2BBCD",
") 	c #A2BCCD",
"! 	c #9FBACB",
"~ 	c #9EB9CA",
"{ 	c #9CB7C8",
"] 	c #93B1C3",
"^ 	c #B3C8D5",
"/ 	c #6F7E89",
"( 	c #687885",
"_ 	c #717E8F",
": 	c #535666",
"< 	c #737F8F",
"[ 	c #5F727F",
"} 	c #C1D3DD",
"| 	c #80A2B8",
"1 	c #82A4B9",
"2 	c #85A6BA",
"3 	c #88A7BC",
"4 	c #8AA9BE",
"5 	c #8DADC0",
"6 	c #8FAEC2",
"7 	c #FFFFFF",
"8 	c #93B0C4",
"9 	c #91AEC3",
"0 	c #8EADC1",
"a 	c #8AAABE",
"b 	c #88A8BD",
"c 	c #85A6BB",
"d 	c #A9C0CF",
"e 	c #546A79",
"f 	c #B9CDD9",
"g 	c #6F96AF",
"h 	c #7197B0",
"i 	c #7499B2",
"j 	c #779CB3",
"k 	c #799EB5",
"l 	c #647486",
"m 	c #84A6BC",
"n 	c #81A4B9",
"o 	c #7EA1B8",
"p 	c #7A9FB5",
"q 	c #789CB4",
"r 	c #759AB3",
"s 	c #4A6373",
"t 	c #B2C7D4",
"u 	c #5E89A5",
"v 	c #618AA7",
"w 	c #648DA9",
"x 	c #678FAA",
"y 	c #6A92AC",
"z 	c #749BB3",
"A 	c #7398B2",
"B 	c #6B93AC",
"C 	c #6790AB",
"D 	c #618AA8",
"E 	c #92AFC2",
"F 	c #465A6E",
"G 	c #AEC0CF",
"H 	c #587C9B",
"I 	c #597D9C",
"J 	c #5A809D",
"K 	c #5C85A3",
"L 	c #5D8BA6",
"M 	c #F3F3F3",
"N 	c #6197AE",
"O 	c #6192AB",
"P 	c #5F8CA7",
"Q 	c #5E86A3",
"R 	c #5C83A1",
"S 	c #5A809E",
"T 	c #597E9C",
"U 	c #8EA6BB",
"V 	c #021323",
"W 	c #8694A3",
"X 	c #04213F",
"Y 	c #062242",
"Z 	c #082A4A",
"` 	c #0A3553",
" .	c #0B405C",
"..	c #EAEAEA",
"+.	c #0D6E7F",
"@.	c #0D6F80",
"#.	c #10516A",
"$.	c #114764",
"%.	c #103B59",
"&.	c #0E3150",
"*.	c #0C2A4A",
"=.	c #082646",
"-.	c #072343",
";.	c #55697D",
">.	c #E5E5E5",
",.	c #031325",
"'.	c #8695A4",
").	c #052242",
"!.	c #082546",
"~.	c #093150",
"{.	c #0A3D5A",
"].	c #0B4B66",
"^.	c #E1E1E1",
"/.	c #105C75",
"(.	c #10506B",
"_.	c #104461",
":.	c #0E3856",
"<.	c #0C2D4E",
"[.	c #0A2848",
"}.	c #082445",
"|.	c #556A7F",
"1.	c #041527",
"2.	c #8796A6",
"3.	c #072547",
"4.	c #092C4C",
"5.	c #0B3857",
"6.	c #0C4664",
"7.	c #0C546F",
"8.	c #DDDDDD",
"9.	c #366473",
"0.	c #0F697F",
"a.	c #105A75",
"b.	c #104D69",
"c.	c #0F405E",
"d.	c #0E3353",
"e.	c #0C2B4C",
"f.	c #092849",
"g.	c #576C83",
"h.	c #07172B",
"i.	c #8A99A9",
"j.	c #0C2A4D",
"k.	c #0D3456",
"l.	c #0E4162",
"m.	c #0F4F6E",
"n.	c #0F5E7A",
"o.	c #D9D9D9",
"p.	c #0E979B",
"q.	c #108994",
"r.	c #12798B",
"s.	c #13657F",
"t.	c #135574",
"u.	c #134766",
"v.	c #123A5C",
"w.	c #0F3052",
"x.	c #0D2C4F",
"y.	c #5A6F86",
"z.	c #091B30",
"A.	c #8C9BAD",
"B.	c #103256",
"C.	c #113D61",
"D.	c #134A6B",
"E.	c #135979",
"F.	c #136D86",
"G.	c #386877",
"H.	c #377B81",
"I.	c #12A4A5",
"J.	c #1399A0",
"K.	c #148797",
"L.	c #16738B",
"M.	c #165F7F",
"N.	c #164F71",
"O.	c #154266",
"P.	c #13375C",
"Q.	c #133256",
"R.	c #5D738C",
"S.	c #0D1F36",
"T.	c #8F9FB1",
"U.	c #153A60",
"V.	c #15456A",
"W.	c #175376",
"X.	c #176385",
"Y.	c #177A92",
"Z.	c #1790A0",
"`.	c #16A3A9",
" +	c #15B0B0",
".+	c #13BFB8",
"++	c #12C8BA",
"@+	c #12CABD",
"#+	c #13C8BB",
"$+	c #15B1B0",
"%+	c #17A6AB",
"&+	c #1894A2",
"*+	c #1A8098",
"=+	c #1B6B8A",
"-+	c #1B587C",
";+	c #1A4B70",
">+	c #183F66",
",+	c #173960",
"'+	c #617892",
")+	c #10233A",
"!+	c #90A2B5",
"~+	c #194169",
"{+	c #1A4C73",
"]+	c #1B5981",
"^+	c #1C6F8F",
"/+	c #1C869C",
"(+	c #1B9CA9",
"_+	c #1AAEB1",
":+	c #19BCB9",
"<+	c #18CCC1",
"[+	c #17D2C4",
"}+	c #16D6C5",
"|+	c #19BDBA",
"1+	c #1BAFB2",
"2+	c #1DA0AC",
"3+	c #1F8BA1",
"4+	c #1F7795",
"5+	c #1F5F87",
"6+	c #1F5079",
"7+	c #1D466E",
"8+	c #1B3F68",
"9+	c #647C97",
"0+	c #132840",
"a+	c #CADAE2",
"b+	c #8FB8C9",
"c+	c #8DC4D2",
"d+	c #8AD1DB",
"e+	c #84DDE3",
"f+	c #6EE7EA",
"g+	c #34EFEF",
"h+	c #20F5F3",
"i+	c #19F9F6",
"j+	c #13FBF8",
"k+	c #0FFDF9",
"l+	c #0AFDFA",
"m+	c #06FEFB",
"n+	c #0FFCF9",
"o+	c #13FAF7",
"p+	c #1AF6F4",
"q+	c #21F0F1",
"r+	c #35E9EB",
"s+	c #6FDFE5",
"t+	c #85D4DE",
"u+	c #8ACAD6",
"v+	c #8EC0CF",
"w+	c #8FB7C8",
"x+	c #366277",
"y+	c #02152A",
"z+	c #021830",
"A+	c #06233C",
"B+	c #0A364E",
"C+	c #104B61",
"D+	c #135F71",
"E+	c #14717F",
"F+	c #137E89",
"G+	c #10878F",
"H+	c #0B8E94",
"I+	c #069497",
"J+	c #019799",
"K+	c #00989A",
"L+	c #029799",
"M+	c #059497",
"N+	c #0A8E94",
"O+	c #0E8891",
"P+	c #12808D",
"Q+	c #137589",
"R+	c #136983",
"S+	c #115B7E",
"T+	c #0E4D77",
"U+	c #084073",
"V+	c #04386F",
"W+	c #387599",
"X+	c #DCE9FD",
". + + + + + + + + + + + + + + + + + + + + + + + + + + ",
"@ # $ % & * = - ; > , , ' ' ' ) ) ' , ! ~ { = * ] % ^ ",
"/ # $ % & * = - ; > , , ' ' ' ) ) ' , ! ~ { = * ] % ^ ",
"( # $ % & * = - ; _ : : : : : : : : < ! ~ { = * ] % ^ ",
"[ } | 1 2 3 4 5 6 : 7 7 7 7 7 7 7 7 : 8 9 0 a b c 1 d ",
"e f g h i j k l : : : : : : : : : 7 : m n o p q r h ; ",
"s t u v w x y : 7 7 7 7 7 7 7 7 : 7 : z A g B C w D E ",
"s t u v w x y : 7 7 7 7 7 7 7 7 : 7 : z A g B C w D E ",
"F G H I J K L : M M : : : : M M : M : N O P Q R S T U ",
"V W X Y Z `  .: ....: +.@.: ....: ..: #.$.%.&.*.=.-.;.",
"V W X Y Z `  .: >.>.: +.@.: >.>.: >.: #.$.%.&.*.=.-.;.",
",.'.).!.~.{.].: ^.^.: : : : ^.^.: ^.: /.(._.:.<.[.}.|.",
"1.2.3.4.5.6.7.: 8.8.8.8.8.8.8.8.: : 9.0.a.b.c.d.e.f.g.",
"h.i.j.k.l.m.n.: o.o.o.o.o.o.o.o.: p.q.r.s.t.u.v.w.x.y.",
"z.A.B.C.D.E.F.G.: : : : : : : : H.I.J.K.L.M.N.O.P.Q.R.",
"S.T.U.V.W.X.Y.Z.`. +.+++@+@+@+#+.+$+%+&+*+=+-+;+>+,+'+",
")+!+~+{+]+^+/+(+_+:+<+[+}+}+}+[+<+|+1+2+3+4+5+6+7+8+9+",
"0+a+b+c+d+e+f+g+h+i+j+k+l+l+l+m+l+n+o+p+q+r+s+t+u+v+w+",
"x+y+z+A+B+C+D+E+F+G+H+I+J+K+K+L+M+N+O+P+Q+R+S+T+U+V+W+",
"X+X+X+X+X+X+X+X+X+X+X+X+X+X+X+X+X+X+X+X+X+X+X+X+X+X+X+",
"                                                      ",
"                                                      ",
"                                                      ",
"                                                      ",
"                                                      ",
"                                                      ",
"                                                      ",
"                                                      ",
"                                                      "};
