/* XPM */
static char * maximize_toggled_prelight_xpm[] = {
"27 29 270 2",
"  	c None",
". 	c #5F7180",
"+ 	c #FCFCFC",
"@ 	c #5D707D",
"# 	c #D6E6F3",
"$ 	c #A6CCE6",
"% 	c #A8CDE7",
"& 	c #AACFE8",
"* 	c #ACD0EB",
"= 	c #AED4EC",
"- 	c #B0D5ED",
"; 	c #B1D7EF",
"> 	c #B4D9F0",
", 	c #B6DAF1",
"' 	c #B6DAF2",
") 	c #B7DBF2",
"! 	c #B5DBF3",
"~ 	c #B5D9F1",
"{ 	c #B3D7F0",
"] 	c #B2D5EE",
"^ 	c #AFD4EC",
"/ 	c #A9D0E8",
"( 	c #A8CEE7",
"_ 	c #C2DEED",
": 	c #596D7C",
"< 	c #546C7A",
"[ 	c #7A8A9D",
"} 	c #535666",
"| 	c #7A8B9D",
"1 	c #4F6777",
"2 	c #D2E4F0",
"3 	c #9DC8E1",
"4 	c #9FC9E3",
"5 	c #A1CBE5",
"6 	c #A3CDE7",
"7 	c #A6CFE8",
"8 	c #A9D2EB",
"9 	c #ABD3ED",
"0 	c #FFFFFF",
"a 	c #ADD6EF",
"b 	c #ACD4ED",
"c 	c #A9D2EC",
"d 	c #A7CFE9",
"e 	c #A4CDE7",
"f 	c #A2CBE4",
"g 	c #BEDAEA",
"h 	c #4A6174",
"i 	c #CFE2EF",
"j 	c #96BFDE",
"k 	c #98C2DE",
"l 	c #9BC3E0",
"m 	c #9DC6E2",
"n 	c #9FC9E4",
"o 	c #728498",
"p 	c #A7D2EC",
"q 	c #A6CFEA",
"r 	c #A3CCE6",
"s 	c #A0C9E5",
"t 	c #9DC7E2",
"u 	c #9AC4E0",
"v 	c #B9D5E9",
"w 	c #425D6F",
"x 	c #C9DFEC",
"y 	c #8CBAD8",
"z 	c #8EBBD9",
"A 	c #90BEDC",
"B 	c #92BFDE",
"C 	c #97C4DF",
"D 	c #9ECBE6",
"E 	c #9CC8E5",
"F 	c #99C6E3",
"G 	c #97C4E0",
"H 	c #93BFDE",
"I 	c #92BFDC",
"J 	c #8EBCD9",
"K 	c #B1D0E6",
"L 	c #3B576A",
"M 	c #C3DBEA",
"N 	c #82B1D3",
"O 	c #83B2D5",
"P 	c #86B6D6",
"Q 	c #87B7DA",
"R 	c #8CBADB",
"S 	c #95C4E2",
"T 	c #93C1E0",
"U 	c #90BEDF",
"V 	c #8CBBDC",
"W 	c #88B8DA",
"X 	c #87B6D7",
"Y 	c #83B3D5",
"Z 	c #ABCBE2",
"` 	c #F3F3F3",
" .	c #012A48",
"..	c #8AB4D1",
"+.	c #025C9A",
"@.	c #055F9D",
"#.	c #09649F",
"$.	c #0E69A4",
"%.	c #136EA8",
"&.	c #EAEAEA",
"*.	c #2780BA",
"=.	c #2881BB",
"-.	c #247CB6",
";.	c #1F79B3",
">.	c #1B74AF",
",.	c #146EA9",
"'.	c #106AA6",
").	c #09639F",
"!.	c #05609D",
"~.	c #5793BB",
"{.	c #E5E5E5",
"].	c #032B49",
"^.	c #8BB5D2",
"/.	c #045E9B",
"(.	c #07609F",
"_.	c #0D65A1",
":.	c #106EA7",
"<.	c #1475AC",
"[.	c #E1E1E1",
"}.	c #2286BC",
"|.	c #207FB7",
"1.	c #1C78B1",
"2.	c #156FAB",
"3.	c #126BA7",
"4.	c #0D64A1",
"5.	c #5894BC",
"6.	c #052D4B",
"7.	c #8CB6D3",
"8.	c #08619D",
"9.	c #0C64A0",
"0.	c #116CA5",
"a.	c #1376AC",
"b.	c #1783B4",
"c.	c #DDDDDD",
"d.	c #3D728A",
"e.	c #2096C1",
"f.	c #208BBB",
"g.	c #1E82B5",
"h.	c #1B75B0",
"i.	c #156DA9",
"j.	c #1267A4",
"k.	c #5B96BE",
"l.	c #0A304D",
"m.	c #91B8D4",
"n.	c #1166A2",
"o.	c #146AA5",
"p.	c #1775AC",
"q.	c #1981B5",
"r.	c #1C8FB9",
"s.	c #D9D9D9",
"t.	c #1FAECD",
"u.	c #22A8CA",
"v.	c #229EC6",
"w.	c #2495C2",
"x.	c #248ABB",
"y.	c #217DB5",
"z.	c #1E74AF",
"A.	c #186DA9",
"B.	c #609AC2",
"C.	c #0F3553",
"D.	c #95BBD7",
"E.	c #196DA8",
"F.	c #1C74AE",
"G.	c #2181B5",
"H.	c #218DBC",
"I.	c #2499C2",
"J.	c #40768D",
"K.	c #3F7F92",
"L.	c #25BAD3",
"M.	c #28B2D1",
"N.	c #28ABCF",
"O.	c #2BA1C9",
"P.	c #2A94C3",
"Q.	c #2888BC",
"R.	c #267DB6",
"S.	c #2273B0",
"T.	c #1E70AC",
"U.	c #679FC7",
"V.	c #143B58",
"W.	c #99BEDA",
"X.	c #2576B0",
"Y.	c #2780B7",
"Z.	c #2B8DBE",
"`.	c #2C98C5",
" +	c #2DA6CE",
".+	c #2DB2D2",
"++	c #2DBBD7",
"@+	c #2BC1DA",
"#+	c #29C6DC",
"$+	c #28CBDB",
"%+	c #27CDDC",
"&+	c #2DC2DB",
"*+	c #30BED8",
"=+	c #31B6D5",
"-+	c #32ACD2",
";+	c #33A0CD",
">+	c #3393C4",
",+	c #3187BE",
"'+	c #2E7DB7",
")+	c #2879B3",
"!+	c #6FA4CB",
"~+	c #1B415D",
"{+	c #9EC3E0",
"]+	c #3080BB",
"^+	c #3289C0",
"/+	c #3498C7",
"(+	c #35A5CF",
"_+	c #34B3D5",
":+	c #35BEDC",
"<+	c #34C6DF",
"[+	c #32CEE2",
"}+	c #2FD4E4",
"|+	c #2ED7E5",
"1+	c #2ED8E5",
"2+	c #34CFE2",
"3+	c #37C9E1",
"4+	c #38C2DF",
"5+	c #3CB8DA",
"6+	c #3CACD6",
"7+	c #3C9FD0",
"8+	c #3992C7",
"9+	c #3686BF",
"0+	c #3381BB",
"a+	c #76AAD2",
"b+	c #244964",
"c+	c #D2E8F2",
"d+	c #9BD6E9",
"e+	c #99DEED",
"f+	c #95E4F0",
"g+	c #8CEBF4",
"h+	c #75F0F6",
"i+	c #3AF5F7",
"j+	c #24F8F8",
"k+	c #1CFBFA",
"l+	c #15FCFA",
"m+	c #10FDFB",
"n+	c #0AFEFB",
"o+	c #06FEFB",
"p+	c #16FBFA",
"q+	c #1DF9F9",
"r+	c #25F6F8",
"s+	c #3BF2F6",
"t+	c #77ECF4",
"u+	c #8FE6F2",
"v+	c #95E0EE",
"w+	c #99DAEB",
"x+	c #9BD3E8",
"y+	c #152F41",
"z+	c #13344C",
"A+	c #13364D",
"B+	c #143B50",
"C+	c #154152",
"D+	c #174957",
"E+	c #174F5B",
"F+	c #17535E",
"G+	c #16585F",
"H+	c #165B60",
"I+	c #145E62",
"J+	c #136163",
"K+	c #136263",
"L+	c #145F62",
"M+	c #17585F",
"N+	c #18565F",
"O+	c #19515D",
"P+	c #194B59",
"Q+	c #194456",
"R+	c #183E53",
"S+	c #16394F",
"T+	c #14364D",
"U+	c #DCE9FD",
". + + + + + + + + + + + + + + + + + + + + + + + + + + ",
"@ # $ % & * = - ; > , ' ) ) ) ! ) ) ' ~ { ] ^ * / ( _ ",
": # $ % & * = - ; > , ' ) ) ) ! ) ) ' ~ { ] ^ * / ( _ ",
"< # $ % & * = - ; [ } } } } } } } } | ~ { ] ^ * / ( _ ",
"1 2 3 4 5 6 7 8 9 } 0 0 0 0 0 0 0 0 } a b c d e f 4 g ",
"h i j k l m n o } } } } } } } } } 0 } p q r s t u k v ",
"w x y z A B C } 0 0 0 0 0 0 0 0 } 0 } D E F G H I J K ",
"L M N O P Q R } 0 0 0 0 0 0 0 0 } 0 } S T U V W X Y Z ",
"L M N O P Q R } ` ` } } } } ` ` } ` } S T U V W X Y Z ",
" ...+.@.#.$.%.} &.&.} *.=.} &.&.} &.} -.;.>.,.'.).!.~.",
" ...+.@.#.$.%.} {.{.} *.=.} {.{.} {.} -.;.>.,.'.).!.~.",
"].^./.(._.:.<.} [.[.} } } } [.[.} [.} }.|.1.2.3.4.(.5.",
"6.7.8.9.0.a.b.} c.c.c.c.c.c.c.c.} } d.e.f.g.h.i.j.9.k.",
"l.m.n.o.p.q.r.} s.s.s.s.s.s.s.s.} t.u.v.w.x.y.z.A.o.B.",
"C.D.E.F.G.H.I.J.} } } } } } } } K.L.M.N.O.P.Q.R.S.T.U.",
"V.W.X.Y.Z.`. +.+++@+#+$+%+%+%+$+#+&+*+=+-+;+>+,+'+)+!+",
"~+{+]+^+/+(+_+:+<+[+}+|+1+1+1+|+}+2+3+4+5+6+7+8+9+0+a+",
"b+c+d+e+f+g+h+i+j+k+l+m+n+n+n+o+n+m+p+q+r+s+t+u+v+w+x+",
"y+z+A+B+C+D+E+F+G+H+I+J+K+K+K+J+L+H+M+N+O+P+Q+R+S+T+z+",
"U+U+U+U+U+U+U+U+U+U+U+U+U+U+U+U+U+U+U+U+U+U+U+U+U+U+U+",
"                                                      ",
"                                                      ",
"                                                      ",
"                                                      ",
"                                                      ",
"                                                      ",
"                                                      ",
"                                                      ",
"                                                      "};
