/* XPM */
static char * menu_active_xpm[] = {
"20 16 2 1",
" 	c None",
".	c #9aa6b3 s inactive_border_color",
"  ................  ",
"  ................  ",
"  ................  ",
"  ................  ",
"  ................  ",
"  ................  ",
"  ................  ",
"  ................  ",
"  ................  ",
"  ................  ",
"  ................  ",
"  ................  ",
"  ................  ",
"  ................  ",
"  ................  ",
"  ................  ",};
