/* XPM */
static char * menu_active_xpm[] = {
"20 16 2 1",
" 	c None",
".	c #75B8FA s active_border_color",
"  ................  ",
"  ................  ",
"  ................  ",
"  ................  ",
"  ................  ",
"  ................  ",
"  ................  ",
"  ................  ",
"  ................  ",
"  ................  ",
"  ................  ",
"  ................  ",
"  ................  ",
"  ................  ",
"  ................  ",
"  ................  ",};
