/* XPM */
static char * bottom_active_xpm[] = {
"8 30 2 1",
" 	c None",
".	c #75b8fa s active_border_color",
"...     ",
".....   ",
"......  ",
"....... ",
"....... ",
"........",
"........",
"........",
"........",
"........",
"........",
"........",
"........",
"........",
"........",
"........",
"........",
"........",
"........",
"........",
"........",
"........",
"........",
"........",
"........",
"........",
"........",
"........",
"........",
"........"};
